<?xml version="1.0" encoding="utf-8" ?><svg xmlns="http://www.w3.org/2000/svg" xmlns:xlink="http://www.w3.org/1999/xlink" width="1024" height="1024" viewBox="0 0 1024 1024"><path fill="#F1818D" d="M555.055 726.026C558.967 731.153 568.527 746.998 571.38 752.802C587.394 785.383 598.524 823.614 586.393 859.319C577.993 884.043 564.861 904.121 541.308 916.112C520.965 926.399 497.353 928.124 475.731 920.902C452.211 913.158 434.509 897.298 423.23 875.121C409.863 848.837 408.323 816.951 412.371 788.125C413.961 776.803 419.898 757.662 423.491 746.923L425.238 749.221C410.476 802.877 412.847 876.891 469.337 905.586C504.855 923.628 546.314 909.913 567.148 876.657C593.224 835.032 583.604 782.351 562.481 740.859C559.941 735.869 556.701 731.449 555.055 726.026Z"/><path fill="#F1818D" d="M445.859 129.212C477.627 126.996 487.541 189.814 450.612 194.878C414.186 199.072 411.337 131.789 445.859 129.212ZM450.245 192.269C468.077 186.932 471.968 168.653 466.767 152.581C463.263 141.752 455.859 132.63 443.301 133.569C422.193 137.642 416.793 178.126 434.749 189.759C439.49 192.831 444.83 192.845 450.245 192.269Z"/><path fill="#F1818D" d="M613.239 421.85C621.47 414.717 629.388 406.811 636.499 399.042C672.602 359.592 675.791 301.827 639.927 261.023C635.562 256.057 624.66 247.751 622.178 242.776C672.546 274.008 691.879 328.183 658.973 379.809C648.176 396.748 630.598 412.689 614.01 423.944L613.239 421.85Z"/><path fill="#F1818D" d="M624.064 86.6354C670.343 81.5351 682.441 149.364 663.312 181.323C663.75 177.758 665.164 174.4 666.135 170.946C672.474 148.383 666.062 118.154 648.799 102.124C633.694 89.8005 615.739 92.4596 602.62 106.072C590.558 118.589 583.924 134.032 583.546 151.457C583.492 153.954 584 155.869 584.016 158.171L583.305 158.046C582.695 157.111 582.241 156.289 582.105 155.155C578.38 123.996 590.796 92.6324 624.064 86.6354Z"/><path fill="#F1818D" d="M330.244 420.358C329.349 417.881 329.027 412.459 328.845 409.728C326.711 377.774 339.243 345.037 370.265 331.826C373.16 330.594 376.154 329.333 379.395 330.197L379.59 330.816C378.174 332.497 370.617 336.767 368.197 338.416C363.039 341.924 358.265 345.965 353.953 350.471C334.48 371.198 331.624 394.084 332.546 421.147C331.695 420.567 331.194 420.194 330.542 419.396L330.244 420.358Z"/><path fill="#F1818D" d="M364.588 222.582C365.598 216.865 365.81 213.005 367.434 207.321C372.84 188.4 397.774 175.066 410.683 195.315C423.513 215.44 419.531 242.561 392.766 246.71C411.69 238.827 417.526 223.617 410.345 205.043C406.331 194.66 396.921 185.415 385.187 190.789C373.867 195.973 367.451 212.795 365.404 224.083L364.588 222.582Z"/><path fill="#F1818D" d="M502.096 99.2584C516.415 89.21 530.804 92.8136 540.385 106.979C548.514 118.999 548.275 131.091 545.95 144.813C545.749 146.042 545.436 147.181 544.558 148.067C544.226 146.87 545.131 140.325 545.05 137.964C544.357 117.966 528.687 87.2717 504.384 101.688C503.551 100.275 503.565 99.9882 502.096 99.2584Z"/><path fill="#F1818D" d="M524.014 250.383C527.75 251.391 530.476 254.76 533.802 256.647C554.529 268.409 571.052 266.433 589.573 253.006C588.476 255.079 588.249 255.325 586.68 257.113C585.389 258.432 584.043 259.696 582.644 260.899C561.341 279.01 539.964 269.895 524.014 250.383Z"/><path fill="#F1818D" d="M345.335 250.875C360.161 247.903 365.295 257.092 368.775 269.581L368.958 268.697C371.624 282.995 355.195 300.921 340.924 298.156L340.724 297.52C342.092 296.678 344.95 296.518 346.789 296.01C354.989 293.673 361.231 287.005 363.022 278.668C364.338 272.781 363.524 264.675 360.263 259.532C358.216 256.256 354.877 254.001 351.074 253.325C349.619 253.054 348.988 253.133 347.539 253.283L347.877 252.43L350.491 252.151L350.267 252.137L349.888 251.819C347.941 251.791 347.759 251.682 345.851 251.05L345.335 250.875Z"/><path fill="#F1818D" d="M603.669 207.437C606.013 207.691 613.083 210.182 615.726 211.119C628.35 215.592 640.475 219.394 653.819 215.179C656.181 214.432 658.834 212.949 661.171 211.891L661.451 212.359L660.66 213.864C642.833 225.854 619.133 221.186 603.669 207.437Z"/><path fill="#F7898B" d="M427.14 287.398L427.692 287.367C427.742 287.629 427.871 288.248 427.881 288.497C428.677 308.702 403.34 316.224 392.831 329.731C392.223 330.512 392.572 330.239 391.665 330.405C390.728 322.361 406.965 313.327 412.333 308.534C420.147 301.557 424.391 298.014 427.14 287.398Z"/><path fill="#F1818D" d="M500.678 259.389L501.165 259.875C498.234 267.112 487.348 274.692 479.756 276.489C467.808 279.316 456.43 274.487 446.379 268.51C445.508 267.838 444.436 267.197 444.332 266.147C457.089 272.493 470.985 275.183 484.987 270.857C492.073 268.668 495.882 264.722 500.678 259.389Z"/><path fill="#F7898B" d="M502.096 99.2584C503.565 99.9882 503.551 100.275 504.384 101.688C490.349 114.259 486.452 133.215 489.666 151.24C489.594 151.096 489.522 150.952 489.45 150.809L489.102 150.084C481.131 133.755 488.08 110.494 502.096 99.2584Z"/><path fill="#F1818D" d="M491.768 154.362C492.143 154.744 492.179 154.746 492.468 155.171C496.024 160.417 500.247 164.305 505.881 167.246C513.677 171.314 521.903 171.205 529.875 167.689C532.15 166.686 534.757 164.863 536.953 164.152L536.654 164.953C527.452 172.151 515.878 176.403 504.711 170.407C498.441 166.984 493.786 161.213 491.768 154.362Z"/><path fill="#DAD8DD" fill-opacity="0.88627452" d="M340.011 519.86C341.246 521.126 346.865 541.38 347.8 544.457C355.435 569.593 363.56 594.574 369.706 620.137C370.998 625.511 374.837 639.5 375.122 644.221C373.679 641.539 369.812 624.356 368.792 620.303C366.206 610.27 363.513 600.265 360.713 590.29C356.319 574.749 351.178 559.284 346.671 543.767C344.445 536.106 341.498 527.579 340.011 519.86Z"/><path fill="#DAD8DD" fill-opacity="0.89019608" d="M442.135 119.093C464.418 118.259 470.399 135.598 476.246 153.4C477.155 156.168 481.367 168.019 479.685 169.955C477.919 158.476 471.419 140.559 465.118 130.734C453.132 111.722 423.213 120.549 418.547 140.823C418.342 141.717 416.614 147.972 416.224 148.246C418.295 131.962 425.966 122.612 442.135 119.093Z"/><path fill="#DAD8DD" fill-opacity="0.8509804" d="M683.573 357.817C686.08 365.484 654.142 434.27 647.855 443.127C647.817 442.753 647.779 442.379 647.741 442.005C652.8 432.425 658.155 422.043 662.904 412.435C666.376 406.242 667.926 399.24 670.637 392.839C675.631 381.05 679.852 370.073 683.573 357.817Z"/><path fill="#F7898B" d="M347.539 253.283C337.605 256.932 333.744 265.155 328.81 273.938C327.115 276.956 326.596 280.296 325.839 283.711L325.602 283.499C325.13 281.244 326.972 274.966 327.851 272.842C332.235 262.242 334.645 255.725 345.335 250.875L345.851 251.05C347.759 251.682 347.941 251.791 349.888 251.819L350.267 252.137L350.491 252.151L347.877 252.43L347.539 253.283Z"/><path fill="#DAD8DD" fill-opacity="0.90588236" d="M318.445 427.295C319.735 430.431 320.75 439.639 321.498 443.684C322.698 450.177 323.754 456.547 325.273 463.041C328.173 474.98 331.305 486.86 334.667 498.677C336.472 505.085 339.039 513.265 340.364 519.621C335.683 515.779 318.705 438.964 318.445 427.295Z"/><path fill="#DAD8DD" fill-opacity="0.88627452" d="M630.188 77.8296C615.192 78.9502 602.926 80.7945 591.337 91.5036C582.672 99.5103 580.381 107.788 576.291 118.418L575.966 118.084C576.802 112.188 581.285 102.197 584.748 97.2443C595.732 81.5388 615.4 76.4356 633.613 76.9911L630.188 77.8296Z"/><path fill="#DAD8DD" fill-opacity="0.8509804" d="M530.134 84.3786C547.316 87.1807 559.726 127.677 558.816 142.423C557.163 137.1 557.059 130.357 555.593 125.365C550.203 107.003 546.286 94.5698 530.134 84.3786Z"/><path fill="#DAD8DD" fill-opacity="0.83137256" d="M495.336 209.804C500.374 221.012 496.21 239.309 486.889 247.365C480.098 243.659 477.114 237.597 474.886 230.449C474.444 229.03 473.204 224.962 473.773 223.754C474.988 225.504 474.933 227.747 475.62 229.809C477.897 236.636 480.745 242.713 487.16 246.356C495.753 234.452 498.663 225.326 494.773 210.675L495.336 209.804Z"/><path fill="#DAD8DD" fill-opacity="0.81960785" d="M633.613 76.9911C662.645 78.413 673.298 100.139 679.935 125.404L679.707 125.92C679.556 124.082 677.828 120.966 677.186 118.883C669.463 93.8381 657.854 78.3886 630.188 77.8296L633.613 76.9911Z"/><path fill="#DAD8DD" fill-opacity="0.8392157" d="M515.241 81.1651C516.81 80.9478 516.86 81.0483 518.42 81.2025C517.905 81.7734 513.692 82.2874 512.593 82.4945C489.919 86.7688 486.219 107.085 482.047 126.366L481.844 129.367L481.454 129.154C482.258 107.022 490.95 84.5677 515.241 81.1651Z"/><path fill="#DAD8DD" fill-opacity="0.90980393" d="M334.24 324.85C335.667 331.44 326.012 351.328 324.073 358.894C322.065 366.723 318.986 377.1 318.839 385.173C316.808 379.421 324.641 352.791 327.318 346.73C330.394 339.767 331.947 332.048 334.24 324.85Z"/><path fill="#DAD8DD" fill-opacity="0.89019608" d="M588.034 211.429C584.546 200.358 569.315 174.168 572.625 161.729C573.847 167.491 574.051 173.29 575.956 178.956C577.941 184.86 580.114 190.741 582.528 196.483C585.964 204.653 589.423 208.672 588.881 217.692C588.65 215.512 588.381 213.594 588.034 211.429Z"/><path fill="#DAD8DD" fill-opacity="0.91764706" d="M363.303 232.479L364.242 232.348L364.698 233.612C365.726 238.365 366.582 242.721 369.016 246.992C374.784 257.109 385.808 268.851 385.798 281.117L385.41 281.037C384.57 278.218 382.563 270.604 381.498 268.582C373.359 253.127 366.516 250.2 363.303 232.479Z"/><path fill="#DAD8DD" fill-opacity="0.81568629" d="M658.192 403.448L658.298 404.119C653.698 414.46 625.353 436.567 616.036 443.733L615.534 443.383C617.893 440.878 626.898 434.167 630.127 431.55C641.155 422.613 649.286 414.54 658.192 403.448Z"/><path fill="#DAD8DD" fill-opacity="0.87058824" d="M369.908 275.247C374.304 283.786 364.36 298.579 367.049 305.936C367.408 306.919 368.932 307.8 369.955 308.112C379.151 310.911 378.845 303.524 381.582 302.187L381.392 303.149C380.875 304.272 380.045 305.971 379.385 306.978C378.464 308.396 376.986 309.358 375.316 309.627C359.332 312.263 367.46 295.672 369.045 288.499C369.785 285.146 369.748 278.891 369.908 275.247Z"/><path fill="#DAD8DD" fill-opacity="0.92156863" d="M373.388 183.605C392.056 170.264 402.152 179.347 413.641 194.205L413.635 194.69C411.588 194.021 408.688 189.416 407.198 187.5C398.613 176.457 385.058 175.879 374.018 184.054L373.388 183.605Z"/><path fill="#DAD8DD" fill-opacity="0.89019608" d="M687.21 162.361C689.239 172.262 678.343 196.974 675.232 208.158C673.914 203.585 686.245 176.307 685.915 169.498C685.878 168.74 686.976 163.428 687.21 162.361Z"/><path fill="#DAD8DD" fill-opacity="0.86666667" d="M349.271 245.116C357.372 244.616 362.791 248.111 366.329 255.425C367.348 257.532 369.74 264.406 369.021 266.37C367.047 263.072 367.867 259.264 363.014 251.862C353.795 241.308 346.245 246.473 336.896 252.59C336.67 252.641 336.445 252.692 336.219 252.743L336.224 252.788L336.211 252.047C340.311 248.381 343.962 246.393 349.271 245.116Z"/><path fill="#F7898B" d="M330.244 420.358L330.542 419.396C331.194 420.194 331.695 420.567 332.546 421.147C333.046 424.476 336.759 440.36 336.039 441.766C333.765 440.578 330.68 423.764 330.244 420.358Z"/><path fill="#DAD8DD" fill-opacity="0.80000001" d="M494.773 210.675C492.338 199.55 489.045 188.482 485.728 177.591C484.772 174.449 483.46 170.956 482.902 167.776L483.344 167.532C486.575 175.317 493.732 201.407 495.336 209.804L494.773 210.675Z"/><path fill="#F7898B" fill-opacity="0.98039216" d="M614.01 423.944C610.05 426.663 596.678 435.829 592.695 436.067C593.943 434.71 599.321 431.926 601.462 430.458C605.585 427.63 609.261 424.882 613.239 421.85L614.01 423.944Z"/><path fill="#DAD8DD" fill-opacity="0.89803922" d="M558.273 151.369C558.699 155.749 552.056 177.678 550.318 182.953C550.071 181.471 550.404 180.912 550.767 179.366C551.501 175.167 553.353 168.311 554.397 163.979C552.529 164.088 551.112 164.317 549.309 163.825C551.17 163.034 553.769 162.989 555.849 162.815C556.555 159.373 556.953 154.205 558.273 151.369Z"/><path fill="#F7898B" d="M423.491 746.923C424.653 743.888 430.29 728.412 431.732 727.678C429.826 735.146 427.094 741.25 425.238 749.221L423.491 746.923Z"/><path fill="#DAD8DD" fill-opacity="0.79215688" d="M376.261 650.155L376.887 650.13C378.035 657.965 383.271 671.875 382.887 679.602C382.106 678.168 376.724 652.851 376.261 650.155Z"/><path fill="#DAD8DD" fill-opacity="0.26666668" d="M363.303 232.479C362.44 227.797 362.286 226.797 364.588 222.582L365.404 224.083C365.442 227.467 365.908 230.597 364.698 233.612L364.242 232.348L363.303 232.479Z"/><path fill="#DAD8DD" fill-opacity="0.27843139" d="M588.034 211.429C588.381 213.594 588.65 215.512 588.881 217.692C588.488 221.684 586.627 231.936 583.225 234.249C583.662 231.995 585.022 229.006 585.848 226.764C587.873 221.265 588.18 217.176 588.034 211.429Z"/><path fill="#DAD8DD" fill-opacity="0.74509805" d="M373.388 183.605L374.018 184.054C367.617 190.11 365.624 197.892 363.97 206.255C361.594 200.468 369.243 187.694 373.388 183.605Z"/><path fill="#DAD8DD" fill-opacity="0.047058824" d="M317.476 393.209C318.081 394.483 318.267 411.726 317.74 412.639C317.456 412.598 317.675 412.66 316.907 412.226C316.827 407.376 316.575 397.607 317.476 393.209Z"/><path fill="#DAD8DD" fill-opacity="0.14901961" d="M571.24 141.395C572.535 143.711 572.211 155.447 572.245 158.867C569.946 156.321 571.062 145.181 571.24 141.395Z"/><path fill="#DAD8DD" fill-opacity="0.84313726" d="M424.447 211.598C425.823 215.06 429.087 225.314 429.003 228.534L428.675 228.654C427.15 223.214 425.695 217.38 423.807 212.089L424.447 211.598Z"/><path fill="#DAD8DD" fill-opacity="0.73333335" d="M415.026 183.59C416.261 184.029 415.826 183.63 416.554 184.554C416.518 189.716 417.038 192.389 418.168 197.463C415.363 194.357 415.424 187.887 415.026 183.59Z"/><path fill="#DAD8DD" fill-opacity="0.74509805" d="M418.168 197.463C419.645 199.059 423.766 209.056 424.447 211.598L423.807 212.089C422.691 209.418 418.315 199.799 418.168 197.463Z"/><path fill="#DAD8DD" fill-opacity="0.28627452" d="M415.026 183.59C414.807 179.139 415.132 175.86 415.502 171.451L415.743 171.204C416.05 174.986 415.974 181.519 416.554 184.554C415.826 183.63 416.261 184.029 415.026 183.59Z"/><path fill="#DAD8DD" fill-opacity="0.15294118" d="M414.87 158.196C417.025 159.789 416.061 165.409 415.914 168.108C414.74 166.89 414.914 160.222 414.87 158.196Z"/><path fill="#DAD8DD" fill-opacity="0.18039216" d="M427.14 287.398C426.547 285.627 425.712 283.561 426.386 281.863C427.403 283.201 427.464 285.6 427.692 287.367L427.14 287.398Z"/></svg>