<?xml version="1.0" encoding="utf-8" ?><svg xmlns="http://www.w3.org/2000/svg" xmlns:xlink="http://www.w3.org/1999/xlink" width="1024" height="1024" viewBox="0 0 1024 1024"><path fill="#F1818D" d="M555.055 726.026C558.967 731.153 568.527 746.998 571.38 752.802C587.394 785.383 598.524 823.614 586.393 859.319C577.993 884.043 564.861 904.121 541.308 916.112C520.965 926.399 497.353 928.124 475.731 920.902C452.211 913.158 434.509 897.298 423.23 875.121C409.863 848.837 408.323 816.951 412.371 788.125C413.961 776.803 419.898 757.662 423.491 746.923L425.238 749.221C410.476 802.877 412.847 876.891 469.337 905.586C504.855 923.628 546.314 909.913 567.148 876.657C593.224 835.032 583.604 782.351 562.481 740.859C559.941 735.869 556.701 731.449 555.055 726.026Z"/><path fill="#F1818D" d="M445.859 129.212C477.627 126.996 487.541 189.814 450.612 194.878C414.186 199.072 411.337 131.789 445.859 129.212ZM450.245 192.269C468.077 186.932 471.968 168.653 466.767 152.581C463.263 141.752 455.859 132.63 443.301 133.569C422.193 137.642 416.793 178.126 434.749 189.759C439.49 192.831 444.83 192.845 450.245 192.269Z"/><path fill="#F1818D" d="M613.239 421.85C621.47 414.717 629.388 406.811 636.499 399.042C672.602 359.592 675.791 301.827 639.927 261.023C635.562 256.057 624.66 247.751 622.178 242.776C672.546 274.008 691.879 328.183 658.973 379.809C648.176 396.748 630.598 412.689 614.01 423.944L613.239 421.85Z"/><path fill="#F1818D" d="M624.064 86.6354C670.343 81.5351 682.441 149.364 663.312 181.323C663.75 177.758 665.164 174.4 666.135 170.946C672.474 148.383 666.062 118.154 648.799 102.124C633.694 89.8005 615.739 92.4596 602.62 106.072C590.558 118.589 583.924 134.032 583.546 151.457C583.492 153.954 584 155.869 584.016 158.171L583.305 158.046C582.695 157.111 582.241 156.289 582.105 155.155C578.38 123.996 590.796 92.6324 624.064 86.6354Z"/><path fill="#F1818D" d="M330.244 420.358C329.349 417.881 329.027 412.459 328.845 409.728C326.711 377.774 339.243 345.037 370.265 331.826C373.16 330.594 376.154 329.333 379.395 330.197L379.59 330.816C378.174 332.497 370.617 336.767 368.197 338.416C363.039 341.924 358.265 345.965 353.953 350.471C334.48 371.198 331.624 394.084 332.546 421.147C331.695 420.567 331.194 420.194 330.542 419.396L330.244 420.358Z"/><path fill="#F1818D" d="M364.588 222.582C365.598 216.865 365.81 213.005 367.434 207.321C372.84 188.4 397.774 175.066 410.683 195.315C423.513 215.44 419.531 242.561 392.766 246.71C411.69 238.827 417.526 223.617 410.345 205.043C406.331 194.66 396.921 185.415 385.187 190.789C373.867 195.973 367.451 212.795 365.404 224.083L364.588 222.582Z"/><path fill="#F1818D" d="M502.096 99.2584C516.415 89.21 530.804 92.8136 540.385 106.979C548.514 118.999 548.275 131.091 545.95 144.813C545.749 146.042 545.436 147.181 544.558 148.067C544.226 146.87 545.131 140.325 545.05 137.964C544.357 117.966 528.687 87.2717 504.384 101.688C503.551 100.275 503.565 99.9882 502.096 99.2584Z"/><path fill="#F1818D" d="M524.014 250.383C527.75 251.391 530.476 254.76 533.802 256.647C554.529 268.409 571.052 266.433 589.573 253.006C588.476 255.079 588.249 255.325 586.68 257.113C585.389 258.432 584.043 259.696 582.644 260.899C561.341 279.01 539.964 269.895 524.014 250.383Z"/><path fill="#F1818D" d="M345.335 250.875C360.161 247.903 365.295 257.092 368.775 269.581L368.958 268.697C371.624 282.995 355.195 300.921 340.924 298.156L340.724 297.52C342.092 296.678 344.95 296.518 346.789 296.01C354.989 293.673 361.231 287.005 363.022 278.668C364.338 272.781 363.524 264.675 360.263 259.532C358.216 256.256 354.877 254.001 351.074 253.325C349.619 253.054 348.988 253.133 347.539 253.283L347.877 252.43L350.491 252.151L350.267 252.137L349.888 251.819C347.941 251.791 347.759 251.682 345.851 251.05L345.335 250.875Z"/><path fill="#F1818D" d="M603.669 207.437C606.013 207.691 613.083 210.182 615.726 211.119C628.35 215.592 640.475 219.394 653.819 215.179C656.181 214.432 658.834 212.949 661.171 211.891L661.451 212.359L660.66 213.864C642.833 225.854 619.133 221.186 603.669 207.437Z"/><path fill="#F7898B" d="M427.14 287.398L427.692 287.367C427.742 287.629 427.871 288.248 427.881 288.497C428.677 308.702 403.34 316.224 392.831 329.731C392.223 330.512 392.572 330.239 391.665 330.405C390.728 322.361 406.965 313.327 412.333 308.534C420.147 301.557 424.391 298.014 427.14 287.398Z"/><path fill="#F1818D" d="M500.678 259.389L501.165 259.875C498.234 267.112 487.348 274.692 479.756 276.489C467.808 279.316 456.43 274.487 446.379 268.51C445.508 267.838 444.436 267.197 444.332 266.147C457.089 272.493 470.985 275.183 484.987 270.857C492.073 268.668 495.882 264.722 500.678 259.389Z"/><path fill="#F7898B" d="M502.096 99.2584C503.565 99.9882 503.551 100.275 504.384 101.688C490.349 114.259 486.452 133.215 489.666 151.24C489.594 151.096 489.522 150.952 489.45 150.809L489.102 150.084C481.131 133.755 488.08 110.494 502.096 99.2584Z"/><path fill="#F1818D" d="M491.768 154.362C492.143 154.744 492.179 154.746 492.468 155.171C496.024 160.417 500.247 164.305 505.881 167.246C513.677 171.314 521.903 171.205 529.875 167.689C532.15 166.686 534.757 164.863 536.953 164.152L536.654 164.953C527.452 172.151 515.878 176.403 504.711 170.407C498.441 166.984 493.786 161.213 491.768 154.362Z"/><path fill="#F7898B" d="M347.539 253.283C337.605 256.932 333.744 265.155 328.81 273.938C327.115 276.956 326.596 280.296 325.839 283.711L325.602 283.499C325.13 281.244 326.972 274.966 327.851 272.842C332.235 262.242 334.645 255.725 345.335 250.875L345.851 251.05C347.759 251.682 347.941 251.791 349.888 251.819L350.267 252.137L350.491 252.151L347.877 252.43L347.539 253.283Z"/><path fill="#F7898B" d="M330.244 420.358L330.542 419.396C331.194 420.194 331.695 420.567 332.546 421.147C333.046 424.476 336.759 440.36 336.039 441.766C333.765 440.578 330.68 423.764 330.244 420.358Z"/><path fill="#F7898B" fill-opacity="0.98039216" d="M614.01 423.944C610.05 426.663 596.678 435.829 592.695 436.067C593.943 434.71 599.321 431.926 601.462 430.458C605.585 427.63 609.261 424.882 613.239 421.85L614.01 423.944Z"/><path fill="#F7898B" d="M423.491 746.923C424.653 743.888 430.29 728.412 431.732 727.678C429.826 735.146 427.094 741.25 425.238 749.221L423.491 746.923Z"/></svg>