<?xml version="1.0" encoding="utf-8"?>
<svg xmlns="http://www.w3.org/2000/svg" xmlns:xlink="http://www.w3.org/1999/xlink" width="1024" height="1024" viewBox="0 0 1024 1024">
  <path fill="#FFFFFF" d="M615.044 218.291C705.205 210.895 817.689 285.443 792.813 387.042C787.731 407.802 771.606 427.516 753.273 438.208C751.857 435.996 750.758 433.924 749.511 431.624C773.671 413.532 787.003 393.932 787.914 362.877C790.268 282.694 704.444 228.442 631.811 226.409C607.756 225.736 581.126 229.391 562.68 246.17C552.815 255.062 550.544 274.923 567.106 276.856C581.481 278.427 589.13 263.249 601.316 257.89C613.542 252.513 624.641 250.484 638.173 250.494C673.288 250.832 706.86 264.974 731.634 289.862C749.67 308.138 762.033 331.95 761.545 358.113C761.236 374.676 755.898 393.15 740.082 401.201C732.494 405.064 725.318 405.044 717.015 404.802C753.312 442.954 758.921 467.967 771.599 518.291C775.415 533.436 781.668 553.058 790.714 565.667C794.998 571.692 799.362 577.138 805.105 581.812C809.677 585.533 818.733 590.796 820.121 596.649C822.238 605.579 822.95 615.017 824.5 624.072C828.205 645.709 833.557 667.513 833.464 689.57C833.448 700.052 827.763 716.49 820.71 724.652C819.843 725.655 816.824 726.525 815.325 726.66C800.455 727.807 784.387 729.469 769.541 729.151C760.987 728.968 760.908 715.68 762.181 709.822C765.3 695.462 771.495 691.532 784.555 686.66C786.198 686.047 787.561 682.41 787.542 680.812C787.953 673.71 786.011 665.912 784.278 658.992C779.253 638.944 767.252 621.342 750.425 609.342C742.035 603.304 732.603 598.131 723.854 592.544C713.552 585.944 703.724 578.633 694.441 570.662C683.799 561.456 675.065 552.592 666.74 541.189C663.122 536.234 659.877 530.862 656.122 526.11C652.173 521.113 645.385 519.211 639.267 518.197C609.851 513.324 584.085 527.957 556.376 534.106C542.647 537.289 528.512 538.356 514.461 537.272C516.665 533.802 517.762 531.918 520.568 528.967C557.2 529.102 584.334 512.468 619.835 509.047C623.782 508.667 628.595 508.905 632.625 509.009C637.484 509.114 642.462 510.146 647.182 511.215C644.273 504.195 625.753 463.489 634.581 459.52C637.14 461.493 640.453 471.665 641.912 475.414C644.101 481.024 646.506 486.547 649.122 491.971C657.362 509.459 666.356 526.069 678.747 541.06C692.216 557.355 708.246 570.676 725.709 582.461C739.689 591.895 756.658 600.921 768.365 612.869C782.62 627.51 791.845 646.647 794.68 666.857C795.957 675.956 798.52 685.968 790.455 692.623C786.108 696.209 778.936 696.567 775.419 700.469C772.034 704.223 766.599 716.408 771.15 720.489C776.593 720.793 809.672 719.572 813.616 718.247C814.991 717.785 815.987 716.293 816.655 715.066C821.104 706.888 824.138 698.736 824.656 689.381C824.977 683.589 824.365 677.572 823.601 671.831C822.764 665.543 811.298 600.018 810.601 598.751C807.99 593.996 801.291 590.895 797.332 587.19C787.661 578.14 779.855 566.319 774.24 554.379C764.299 533.237 758.91 503.267 751.814 480.259C744.833 457.627 733.605 436.462 717.312 419.133C705.836 406.879 692.333 396.695 677.396 389.029C658.25 379.079 633.469 372.051 612.841 366.169C588.87 359.334 563.842 352.766 540.839 343.08C525.789 336.753 511.656 328.434 498.82 318.345C483.5 306.17 475.356 295.299 454.485 294.752C438.929 294.344 429.594 297.412 415.171 302.08C417.281 298.092 419.503 295.767 422.595 292.586C412.651 289.163 403.064 284.998 392.879 281.675C376.476 276.322 363.204 274.573 346.214 272.672L345.629 264.396C363.1 265.22 384.322 270.059 400.845 275.598C410.675 278.893 420.522 283.721 430.81 285.83C436.261 286.948 441.512 286.589 447.008 286.104C456.635 285.256 466.506 285.884 475.596 289.5C485.093 293.277 493.462 302.476 501.474 309.079C514.187 319.756 527.965 328.079 543.311 334.45C588.114 353.049 637.53 359.077 681.406 380.165C690.975 384.764 698.91 390.467 709.298 393.856C722.379 398.124 735.696 398.3 744.854 386.168C753.063 375.024 754.067 359.29 752.185 346.025C748.6 320.76 731.792 299.297 711.812 284.337C689.71 267.452 662.562 258.51 634.753 258.956C623.248 259.155 613.614 260.65 603.409 266.27C592.508 272.246 585.689 283.218 572.53 284.805C559.612 286.518 548.073 278.605 546.9 265.22C546.141 256.557 548.943 249.845 554.488 243.345C569.28 226.006 593.226 220.183 615.044 218.291Z"/>
  <path fill="#FFFFFF" d="M411.396 370.395C412.254 371.392 411.883 372.334 411.567 373.704C407.912 389.557 404.137 406.204 407.105 422.516C411.098 444.463 423.95 465.093 439.208 481.073C442.126 484.129 446.54 488.658 449.876 490.996C454.05 489.488 458.28 487.294 462.785 485.626C459.955 491.119 454.758 495.633 451.526 501.484C447.561 508.662 444.441 515.594 440.861 522.953C435.37 534.187 429.812 545.389 424.189 556.558C420.509 563.786 404.207 588.676 405.784 594.962C409.153 608.39 422.703 633.694 433.591 642.852C444.93 652.389 469.589 653.104 483.622 651.558C483.029 645.408 481.49 637.048 479.099 630.868C477.273 626.147 467.324 628.691 464.633 626.773C459.532 623.139 449.475 605.445 447.548 599.498C446.699 596.877 447.567 586.191 449.515 583.697C455.757 575.706 464.801 567.791 471.853 560.164C483.302 547.904 493.845 534.829 503.397 521.04C508.946 513.114 519.728 497.43 522.137 488.352C525.528 475.576 510.849 457.242 505.682 445.825C502.186 438.774 499.405 430.997 497.961 423.26C496.71 416.559 496.85 403.842 500.932 398.091L501.478 398.305L501.556 399.875C501.278 416.98 506.221 432.829 515.357 446.476C533.7 473.877 539.004 484.403 519.679 512.612C505.627 533.125 491.343 554.965 472.417 572.4C467.486 576.942 458.358 585.605 455.687 591.97C454.211 597.919 464.289 614.236 468.171 618.953C474.012 620.025 481.797 619.307 485.012 625.301C487.965 630.805 495.48 655.687 487.454 658.525C473.961 662.625 453.197 659.968 440.023 655.914C419.494 649.596 410.86 626.225 402.217 608.933C397.905 600.308 394.828 593.07 399.478 583.726C409.335 563.921 420.323 544.668 429.526 524.498C433.715 515.328 438.6 506.631 441.759 497.012C438.572 493.624 435.013 490.535 431.748 487.191C408.524 463.405 391.255 429.333 399.827 395.505C401.799 387.722 405.571 376.206 411.396 370.395Z"/>
  <path fill="#FFFFFF" d="M592.144 534.489C594.298 535.273 595.594 541.29 596.519 543.677C600.899 554.994 606.821 565.862 612.305 576.461C626.01 602.944 648.215 613.785 673.981 625.802C682.088 629.762 690.407 634.936 697.075 641.2C706.009 649.591 706.388 660.326 706.109 672.078C705.798 680.974 706.544 702.351 697.398 707.11C683.514 714.334 669.242 709.606 669.276 733.129C676.416 733.204 706.285 731.193 712.84 729.377C718.189 724.506 725.473 712.262 726.748 705.319C730.971 682.333 736.53 647.968 733.348 624.727C729.232 619.997 723.856 618.296 718.501 615.034C702.093 605.039 693.78 591.366 688.044 573.662C694.957 577.64 697.615 578.258 701.146 585.099C706.411 594.429 708.588 596.215 716.163 603.05C721.857 608.189 740.521 615.657 741.319 621.009C744.747 647.088 740.702 674.167 736.961 700.194C735.476 710.526 726.067 732.824 715.338 737.374C712.122 738.738 701.152 739.291 697.052 739.625C688.759 740.015 679.849 741.73 671.622 741.932C656.762 742.296 660.589 723.653 665.522 715.43C670.71 706.78 676.734 704.933 685.999 702.983C689.613 702.222 692.831 699.913 694.445 696.696C698.319 689.857 698.526 662.205 696.268 655.686C691.087 640.734 662.494 630.363 649.276 623.56C640.491 619.04 629.675 612.254 622.794 605.419C605.149 587.889 593.09 560.035 585.647 536.671L592.144 534.489Z"/>
  <path fill="#FFFFFF" d="M284.439 247.122C285.465 247.177 286.487 247.28 287.503 247.433C294.329 248.448 301.228 253.434 305.275 258.933C311.794 256.664 324.277 248.556 329.789 248.992C336.055 251.923 338.083 269.243 336.649 275.695C334.791 284.059 328.417 289.192 321.802 293.725C327.002 280.032 331.125 272.288 326.505 257.955C319.047 260.295 310.825 265.929 303.501 268.137C297.662 269.897 289.641 271.033 283.377 272.52C267.028 276.401 234.935 292.762 225.712 306.074C225.421 313.859 226.455 317.054 222.303 324.179C215.736 335.446 208.919 346.469 204.77 358.894C211.901 358.36 216.438 356.259 223.235 355.419C224.361 355.28 224.658 355.808 225.237 356.411C225.608 360.447 220.262 367.204 217.933 370.47C226.08 383.415 237.885 382.009 251.678 381.98C246.648 386.425 241.383 387.041 235.002 388.454C236.761 390.67 238.025 391.946 240.156 393.897C243.636 397.083 259.649 401.144 262.514 396.452C265.096 392.223 266.506 385.817 269.862 380.718C279.638 365.866 293.563 367.046 308.712 363.748C328.095 358.876 336.967 341.301 336.039 322.274C335.873 318.868 335.624 315.566 335.324 312.164C336.204 313.453 337.065 314.755 337.907 316.069C342.718 323.682 344.211 332.928 342.041 341.668C338.547 356.295 326.022 368.517 311.241 371.362C300.735 373.385 291.287 371.057 281.445 378.238C272.655 384.651 272.739 397.75 265.499 403.472C263.115 405.356 248.401 404.757 244.268 403.521C235.323 400.845 230.662 394.523 226.17 386.818C224.641 386.426 221.395 385.657 220.292 384.639C214.069 378.747 205.454 369.719 199.814 363.947C191.054 354.979 214.122 327.199 217.141 317.8C218.714 312.903 217.879 306.81 218.559 301.869C230.51 287.253 261.079 270.364 279.219 265.057C282.998 263.951 293.563 261.969 295.666 260.354L295.433 259.202C292.844 256.258 289.998 254.762 286.511 253.174C282.247 258.536 280.901 261.31 274.667 264.115C276.704 258.496 280.505 251.642 284.439 247.122Z"/>
  <path fill="#FFFFFF" d="M319.554 380.381C344.51 387.437 337.32 418.157 333.309 436.552C329.573 453.687 331.185 470.865 336.247 487.401C336.959 490.838 339.703 497.773 338.059 500.938C335.253 506.065 330.897 510.991 326.612 514.941C304.311 535.502 285.5 559.185 267.307 583.362C264.98 586.453 262.62 589.615 260.711 592.989C258.303 597.283 256.574 601.924 255.587 606.748C251.593 626.367 249.585 657.255 255.795 676.398C259.197 685.091 265.36 692.102 271.42 698.985C274.173 702.112 277.823 705.278 277.679 709.297C240.002 696.193 241.393 647.75 245.688 615.676C247.471 602.355 249.24 593.402 257.188 582.249C275.342 556.772 294.373 532.502 317.529 511.338C321.383 507.811 327.424 501.972 330.026 497.654C329.269 493.805 327.71 488.514 326.602 484.832C320.126 463.3 322.552 443.128 327.884 421.729C329.993 413.264 330.008 403.668 327.182 395.284C325.346 389.838 321.74 385.62 319.554 380.381Z"/>
  <path fill="#FFFFFF" d="M403.665 522.314C406.569 523.334 408.104 524.27 410.745 525.759C399.307 544.066 383.92 559.583 365.711 571.175C353.5 578.969 341.08 584.973 328.939 593.554C311.727 605.719 300.156 612.261 295.931 633.887L295.569 634.594C293.732 634.645 292.292 633.536 290.489 632.594C289.435 595.398 345.451 576.974 370.14 557.521C384.509 546.2 392.641 536.619 403.665 522.314Z"/>
  <path fill="#FFFFFF" d="M365.182 453.012C366.124 453.667 372.973 465.205 374.293 467.129C389.304 489.019 402.929 499.474 426.028 511.969C425.023 514.769 423.779 516.946 422.383 519.546C416.928 519.376 397.533 505.991 393.094 502.388C380.474 492.246 370.618 479.083 364.44 464.119C363.304 461.342 361.988 458.957 361.687 455.998C362.314 454.477 363.707 453.922 365.182 453.012Z"/>
  <path fill="#FFFFFF" d="M335.042 371.618C356.183 370.475 377.777 391.344 385.462 409.708C386.525 412.248 387.977 417.774 386.87 420.192L386.1 419.812C375.224 405.489 366.442 394.147 350.849 384.129C347.123 381.735 334.767 375.618 332.456 373.753C332.942 372.416 333.427 372.549 335.042 371.618Z"/>
  <path fill="#FFFFFF" d="M285.548 639.175C286.387 639.575 287.188 640.053 287.938 640.604C293.712 644.778 300.343 651.97 301.285 659.19C302.716 670.164 290.87 690.126 284.955 698.564C284.258 699.334 284.578 699.068 283.52 699.44C281.265 698.604 279.816 697.016 277.985 695.393C280.301 691.731 282.504 687.998 284.592 684.201C287.681 678.588 294.065 666.097 293.564 659.756C293.181 654.909 287.35 645.587 285.743 639.884L285.548 639.175Z"/>
  <path fill="#FFFFFF" d="M263.368 310.205L263.691 310.376L263.938 311.196C257.373 323.9 251.06 322.226 240.305 329.265L239.867 328.768C239.811 324.987 241.885 316.669 242.809 312.798C249.144 310.863 256.743 310.539 263.368 310.205Z"/>
</svg>
