<svg xmlns="http://www.w3.org/2000/svg" width="1024" height="1024" viewBox="0 0 1024 1024">
  <path fill="#FFFFFF" d="M 175.63041466378604,147.83236147669572 C 194.13069565818455,155.1413633164966 209.0712145871978,163.5388541230625 225.8621647597124,173.97625388215988 C 265.2533710347766,174.5325926873959 301.8145059962501,174.64144158407225 341.00414024043175,180.7732627635187 C 359.64552165644795,183.69605721131552 378.0490480760229,187.9774471472606 396.06555619630376,193.58518104641257 C 471.1753263437522,216.98769383187414 507.1236823313427,260.7207616521482 572.4572089809883,292.0087722857345 C 657.3270968637687,332.64972515226987 746.5952864604058,326.1066970298232 818.2622063203814,399.8377144860349 C 875.6658892751086,458.8983195346161 882.8499164557618,524.5221099087328 914.4201279325837,594.2136238660594 C 961.6766748526841,698.5432756102393 1022.3659819107963,811.141412061221 904.6761359597219,894.1326486161763 C 920.443100215354,863.7154291560025 927.4457125682127,834.850314333624 925.6315642902698,800.9338044173298 C 921.6243123163251,726.0457635038522 856.460106172621,684.1671583676973 801.3140299637782,644.9533354798102 C 783.3499305715275,632.1777001624753 766.56301183963,617.8136772417863 749.7720616671152,603.1392333935376 C 773.0012225060184,692.0849077407631 833.7792212577185,675.7011330706312 866.2323182298057,744.7314907666625 C 885.1639633702932,785.005582536992 845.6074680299055,897.1763862825026 798.1372547570693,910.7462154015145 C 782.2291900798202,915.2977118588421 754.0171686375008,913.9310534894587 749.3366660804088,893.1892915116457 C 740.7819490897539,855.2816553838777 789.1390792984728,869.7464643200076 799.8788371038947,840.7604062790999 C 816.3633977894681,802.7560155765079 806.5871542916655,766.4569242551818 769.1028194287494,747.0173175968705 L 766.3856284524534,745.6305020243988 C 681.5681492977021,708.6057513918956 615.3356113903208,686.0377468142876 612.489414314259,581.018718724489 C 642.5276783563738,575.6448083811608 663.741118886451,570.9118970960392 690.9170600900336,557.1848417929384 C 636.0814048087502,542.4217062511023 606.1560211039293,548.5374016680778 555.3114920341202,570.0411059226265 C 591.453357171358,481.5429214839603 562.0238406625083,408.5859406263369 507.78887003325485,334.82267164518385 C 547.1155732584364,431.37970587853374 564.2209757991279,529.2872727187962 487.7647044853843,613.3790925623705 C 459.54462016183015,644.4171538776625 392.8081521772417,702.215918012919 463.6566895918338,719.5793327531403 C 486.51092645329504,726.2957128221467 503.1849648478981,755.3785254378774 478.8955351265529,771.4196276555097 C 412.7355631502887,815.1043181883717 313.9007649679663,716.8863304205495 357.1581227953575,648.5896949169307 C 375.21494532181464,616.7856598842852 406.4142642618124,584.0664878314326 401.0685740028082,544.3527663069565 C 393.98936427821354,491.75052912785145 354.7634470684734,436.51979266603826 321.16945240159066,397.51157324965084 C 285.68874352564785,356.31831301849707 222.2056481195034,321.73661540029025 169.1317323881333,349.79141065852036 C 154.83221251732652,359.38623932852875 145.01162317272974,382.7081233016379 125.59217371750651,383.1798018539032 C 97.54140989989355,383.8651467589036 74.42916083890236,347.2314458663127 51.200000000000045,328.1022601355603 C 77.06975444346403,255.09690199052534 93.47771775730212,225.46984489141119 160.02873947347825,189.50536314135024 C 167.48690461613205,176.3386780841031 171.73604302713557,162.31732761591456 175.63041466378604,147.83236147669572"/>
  <path fill="#202122" d="M 158.9241247442419,246.3002985628118 L 158.83543305065336,248.01769226593092 C 150.50244529396969,263.1920347507678 129.30513052636252,275.4637399908961 113.71958109852562,282.25268599102014 C 106.18078714351896,257.5480178860573 142.3952182118744,249.99309816858 158.9241247442419,246.30029856281203"/>
  <path fill="#FFFFFF" d="M 245.98308488240673,373.29874090004137 C 291.6431813179174,393.73411339091217 353.13474505894237,475.2780627641316 365.3580730116587,523.9980226284385 C 390.6231113624749,624.6913149354975 235.64647113875026,647.6584321342532 197.51307433639317,721.2806006937892 C 179.54494350352434,755.9711472086726 186.3742039098247,774.8866665866892 195.8158378363628,809.9481056383968 C 205.184905831783,870.7744816775087 131.98603853710074,862.1713873994424 117.31965757008743,797.6764003982682 C 93.7720129223901,707.4890423408058 159.23857711241862,637.7249624523627 204.32620898022287,566.8522363940644 C 246.97885071496603,499.80131604129997 264.0761903744226,452.1416250594341 245.98308488240673,373.29874090004137"/>
  <path fill="#FFFFFF" d="M 696.4481966174505,111.40023261498709 C 851.6828490407045,103.55504917303892 972.7389479075171,259.10415396447 936.4559823486618,407.68692936860066 C 930.0459917665974,433.9275763488888 921.4953062165603,451.15392210810955 909.0986263172847,474.81847853371914 C 898.6370379144817,457.0801398160563 874.319388108813,410.3234915325445 866.893474491101,392.35939214029327 C 872.1141900909581,364.8689985685337 872.6060258463119,335.0927781665664 865.9823689115117,307.8039566256896 C 854.9442845003844,262.3172121367377 826.0952954404768,223.1719237393504 785.9219896855882,199.1566319800054 C 750.5098153001452,178.0278517028985 697.7906663431284,168.33626845806657 659.2500940383886,187.4815799512894 C 645.4988500915822,194.5769154383545 629.6956028703919,211.91614153486944 614.3075940328197,214.88328182946066 C 574.3076402244903,222.59542773102612 563.5598195378336,175.67349038219072 587.0671497793539,151.1986143924339 C 614.1019905613191,123.04303311876197 659.1210879386233,114.56088205922492 696.4481966174505,111.40023261498709"/>
</svg>
