<?xml version="1.0" encoding="utf-8"?>
<svg xmlns="http://www.w3.org/2000/svg" xmlns:xlink="http://www.w3.org/1999/xlink" width="1024" height="1024" viewBox="0 0 1024 1024">
  <path fill="#FFFFFF" d="M459.781 326.897C459.16 324.22 456.747 319.194 455.709 316.429C444.406 285.955 440.251 255.68 443.861 223.494C449.631 172.06 480.844 120.315 535.778 160.064C565.139 181.309 585.491 206.025 607.521 234.451C608.121 235.234 608.964 236.352 609.644 237.032C612.009 240.527 621.322 253.783 623.752 256.169C626.266 260.648 632.137 268.653 635.31 273.009C633.296 265.853 631.313 258.406 628.928 251.383C628.373 248.654 626.406 243.616 625.538 240.759L625.497 240.643C625.222 239.889 624.953 239.132 624.684 238.376L623.872 236.396L621.06 229.33C618.195 222.829 614.864 216.586 611.602 210.275C625.533 214.089 642.511 219.328 655.889 224.227C660.081 225.796 664.291 227.29 668.437 228.98L669.3 229.328C671.034 230.011 672.733 230.671 674.447 231.409C679.196 233.248 685.244 235.7 689.861 237.754L693.254 239.29C704.094 244.603 716.14 250.322 727.087 255.367C730.946 257.597 740.466 262.693 744.444 264.334L745.082 264.804C748.355 267.177 754.268 269.969 758.033 272.396C766.658 277.97 776.009 282.973 784.542 288.634C820.4 312.419 857.603 337.585 886.156 370.089C899.352 385.111 907.172 401.867 909.033 421.654C908.676 423.999 908.616 430.654 908.417 433.536C907.011 444.671 904.143 455.572 899.886 465.957C902.685 469.674 909.386 483.888 911.925 488.798C923.907 511.971 934.623 535.837 944.006 560.178C947.631 569.581 950.341 579.202 953.789 588.32C954.874 593.826 959.422 609.148 950.294 609.565C923.219 610.8 891.788 609.799 866.713 598.567C862.626 596.737 860.254 586.216 859.492 582.06C859.023 580.675 858.812 579.93 858.502 578.481C855.062 594.01 853.581 605.697 862.351 620.325C865.629 625.794 876.361 635.198 881.949 636.802C889.372 641.668 893.814 645.022 895.869 654.252C897.108 659.814 894.964 666.836 891.477 671.142C868.248 699.827 824.015 713.541 788.335 713.059C775.247 711.927 767.968 710.116 755.847 705.328C750.154 702.201 745.802 700.135 740.235 696.463L737.534 694.42C730.855 689.29 725.586 683.44 719.567 678.605C717.846 675.969 703.633 663.402 700.762 660.982C682.105 645.244 659.964 634.182 636.176 628.715C604.947 621.527 577.295 623.607 549.285 602.381C533.402 590.305 522.931 572.445 520.15 552.688C515.152 515.205 525.992 488.374 548.606 458.938C551.012 456.668 556.417 450.437 558.98 447.637C558.822 446.947 558.835 447.158 558.944 446.565C558.322 445.008 552.634 447.504 551.242 448.7L551.156 448.776C548.756 449.986 543.983 452.14 541.459 452.748C531.188 458.866 518.999 468.337 509.87 476.051C461.016 517.605 426.512 573.509 411.268 635.808C394.058 703.91 406.967 777.527 442.83 837.538C448.532 847.244 454.963 856.503 462.067 865.236C464.447 868.237 467.627 871.788 469.52 874.924C461.781 875.635 434.408 868.995 426.521 866.999C369.497 852.717 315.91 827.164 268.917 791.845C194.059 736.341 145.798 659.585 150.063 564.146C154.004 475.979 201.572 402.499 267.04 345.984C271.491 342.142 276.306 338.399 280.615 334.452C281.769 333.762 290.753 327.277 291.627 326.405C293.265 325.346 296.248 323.287 297.684 322.003L316.161 309.719L316.85 307.749C307.459 310.444 273.348 324.214 265.413 329.24C228.42 345.483 178.264 383.719 151.667 413.933C150.716 414.725 147.085 418.918 146.272 420C112.432 455.956 87.3381 506.337 73.7716 553.457C72.9812 556.202 70.578 566.376 68.9174 568.046C67.9013 564.68 68.1159 554.196 68.0552 550.169C66.8537 463.189 77.0255 377.215 119.248 299.891C159.981 225.293 224.624 203.647 304.535 193.18C344.194 187.65 384.371 186.859 424.216 190.824C421.345 199.96 418.221 202.473 416.671 213.944C410.335 260.843 422.024 298.341 448.899 335.918C449.227 336.357 449.388 336.547 449.758 336.946C451.018 338.89 459.414 349.542 460.999 350.611C467.586 354.573 473.148 359.546 470.786 347.455C470.22 345.829 460.922 328.707 459.781 326.897ZM549.538 340.605C557.717 331.661 563.799 325.475 568.685 314.11C580.794 285.947 574.697 254.401 555.248 231.171C546.326 220.514 532.024 207.884 517.434 206.542C493.705 204.359 483.806 236.435 482.506 254.398C479.095 269.756 484.227 292.304 490.014 306.606C489.803 303.168 489.73 299.86 489.546 296.49C490.188 290.613 491.169 282.021 496.261 278.553C510.026 269.176 529.707 285.236 537.565 295.495C548.893 310.286 551.942 322.765 549.538 340.605ZM688.222 400.486C679.585 403.553 671.323 407.591 663.596 412.521C681.74 411.224 705.558 414.055 723.784 416.007C724.739 416.249 725.613 416.413 726.577 416.596L727.127 417.798C731.314 437.844 749.35 458.737 768.536 465.792C769.12 466.121 769.453 466.262 770.071 466.529C774.258 468.007 782.573 470.597 786.876 471.377C794.59 474.407 800.532 477.04 807.031 482.42C808.229 483.412 811.829 487.112 812.612 487.543C816.237 492.25 818.493 495.328 821.742 500.321C822.861 502.852 824.24 506.474 825.428 508.814C826.622 512.89 827.704 516.293 828.622 520.492L829.365 523.761C830.963 531.922 833.677 542.669 833.404 550.888L834.583 550.644C834.741 547.667 835.505 544.913 835.955 541.996C837.525 531.812 839.102 521.017 838.956 510.701C839.034 508.955 839.09 507.208 839.123 505.46C839.604 477.041 831.047 448.445 811.057 427.667C795.048 407.479 761.733 395.247 736.68 393.079C724.23 392.91 714.098 393.36 701.882 396.484C696.583 397.786 693.402 398.706 688.222 400.486ZM448.854 864.649C450.116 866.483 451.277 866.034 453.464 865.864C452.864 863.471 450.876 864.278 448.854 864.649Z"/>
  <path d="M470.786 347.455C472.475 349.492 474.132 352.457 475.505 354.764C480.492 363.143 486.473 370.392 492.408 378.054C494.566 380.814 496.746 383.558 498.947 386.283C491.4 381.292 465.917 357.676 460.999 350.611C467.586 354.573 473.148 359.546 470.786 347.455Z"/>
  <path d="M567.03 438.112L568.293 438.682C565.246 441.355 561.698 445.361 558.98 447.637C558.822 446.947 558.835 447.158 558.944 446.565C558.322 445.008 552.634 447.504 551.242 448.7L551.156 448.776C548.756 449.986 543.983 452.14 541.459 452.748C546.175 448.738 561.369 440.887 567.03 438.112Z"/>
  <path fill="#0B0B0B" d="M316.85 307.749C317.665 307.403 318.532 307.007 319.365 306.722L319.772 307.03L319.792 306.635L320.091 306.661L320.176 306.765C320.117 307.177 316.668 309.359 316.161 309.719L316.85 307.749Z"/>
  <path fill="#707173" d="M858.502 578.481C858.64 578.063 858.724 577.535 859.112 577.285C859.79 577.331 859.496 581.536 859.492 582.06C859.023 580.675 858.812 579.93 858.502 578.481Z"/>
  <path fill="#0B0B0B" d="M567.03 438.112C568.848 437.094 571.862 435.631 568.293 438.682L567.03 438.112Z"/>
  <defs>
    <linearGradient id="gradient_0" gradientUnits="userSpaceOnUse" x1="759.16577" y1="458.81088" x2="784.88385" y2="411.71289">
      <stop offset="0" stop-color="#0F0D0E" stop-opacity="0.25490198"/>
      <stop offset="1" stop-color="#0D0C0D" stop-opacity="0.43137255"/>
    </linearGradient>
  </defs>
  <path fill="url(#gradient_0)" d="M736.68 393.079C761.733 395.247 795.048 407.479 811.057 427.667C812.323 431.852 816.368 434.996 818.546 438.674C828.178 454.936 840.701 474.875 832.318 493.927C831.598 493.712 831.316 493.851 830.701 493.477C830.696 493.504 827.579 490.41 827.472 490.355C826.313 489.765 824.589 490.585 823.694 490.655C822.548 489.953 820.453 485.964 817.601 485.662C817.092 485.608 815.194 484.197 814.8 483.774L813.268 482.156C812.514 481.365 806.007 474.85 806.189 474.922C804.09 474.097 800.126 471.894 798.234 471.213C795.664 470.599 793.255 470.047 790.761 469.033C789.839 468.658 786.936 469.652 786.437 468.737C786.921 468.39 788.133 469.078 788.643 468.338C788.314 467.411 783.977 467.041 782.806 466.354C781.625 465.712 778.469 465.906 777.509 465.585C774.05 464.43 773.173 465.687 770.092 465.918C769.557 464.21 770.515 464.571 769.895 463.761C770.62 462.256 768.538 462.658 769.349 461.23C769.922 459.752 773.518 460.408 774.317 459.428C777.851 455.089 775.194 452.686 782.68 452.652C783.274 452.65 785.438 452.237 786.002 452.262C787.816 452.344 789.489 451.432 791.192 450.835C792.992 449.601 797.147 445.841 797.671 443.745C798.125 441.925 796.443 442.544 796.031 442.535L795.828 442.322C795.591 440.741 797.881 439.563 795.561 436.877C795.192 436.45 793.274 433.717 793.123 433.832C792.33 434.439 788.202 432.016 787.684 432.959C787.732 434.686 792.192 437.793 791.988 438.678C790.039 439.59 783.777 430.822 784.335 435.636C783.975 436.154 781.09 434.872 781.301 432.283C781.599 428.636 772.268 423.52 769.498 422.097C768.142 421.4 767.373 421.468 766.758 420.081C766.91 419.793 769.209 419.355 770.636 417.893C772.038 417.656 772.054 417.777 773.056 416.818L772.845 416.056C769.126 414.097 752.981 417.001 748.054 416.603C743.449 416.595 737.731 410.649 733.497 413.902C730.178 416.453 727.468 412.885 723.389 412.631C715.293 412.127 707.336 410.706 699.434 408.904C697.734 408.517 696.615 409.939 695.066 409.392L695.456 408.211C694.087 405.028 694.911 405.791 695.329 402.075L694.396 401.091C692.028 400.183 690.75 400.414 688.222 400.486C693.402 398.706 696.583 397.786 701.882 396.484C705.077 396.837 708.277 396.497 711.249 396.861C719.929 397.924 728.172 396.34 736.991 396.415C737.117 396.115 736.709 393.748 736.68 393.079Z"/>
  <path fill="#FFFFFF" fill-opacity="0.81176472" d="M750.143 419.29C750.577 419.401 750.88 419.511 751.285 419.551C754.191 420.232 758.416 420.585 760.985 422.109C759.152 423.451 760.777 425.694 763.148 425.794C764.223 427.697 762.885 426.914 765.026 427.328C766.738 427.659 766.005 427.81 767.547 426.757C767.633 426.702 769.893 428.287 770.074 428.391C771.34 429.28 773.046 430.338 774.229 431.331C776.914 433.585 779.435 435.81 781.904 438.322C783.078 439.516 782.241 439.193 782.26 440.153C783.192 440.654 783.778 440.033 784.413 439.409C788.405 442.374 788.926 443.903 789.385 447.975C785.567 448.799 780.163 448.81 776.269 448.357C772.067 447.712 769.904 447.027 765.906 445.654C758.121 442.305 755.268 441.228 748.912 435.175C754.505 433.2 751.97 433.124 752.616 428.215C753.101 424.525 747.934 424.913 746.361 422.846C745.56 421.793 747.479 420.127 748.404 419.736L749.286 419.321L750.143 419.29Z"/>
  <path fill="#0B0B0B" fill-opacity="0.87058824" d="M727.127 417.798C728.827 418.831 730.024 419.453 730.892 421.296C731.556 422.707 733.618 424.759 735.19 423.326C736.396 422.226 737.133 421.662 738.57 420.904C739.53 422.717 741.834 426.215 742.351 427.875C742.714 429.403 742.673 429.317 743.654 430.539C745.562 432.917 747.344 435.402 749.742 437.315C751.112 438.409 752.728 440.462 754.528 441.147C756.156 441.767 754.456 444.032 753.312 443.427C752.777 443.121 752.431 442.682 751.985 442.266C748.212 440.021 745.85 435.027 741.662 433.744C741.373 433.656 740.99 434.105 741.018 434.481C741.094 435.488 741.978 435.603 742.691 436.141C745.319 438.337 747.055 440.619 749.815 442.857C752.539 445.064 755.709 443.788 756.738 446.787C757.257 448.298 759.724 448.123 760.913 448.206C756.495 450.168 759.547 454.814 760.702 452.001C760.709 451.985 760.476 449.657 761.297 449.302C762.281 448.552 763.668 451.762 764.574 452.911C766.75 455.673 766.413 456.168 769.774 457.249L770.081 457.255L770.024 457.224C769.501 457.38 766.277 458.695 766.256 458.681C764.883 457.761 764.498 458.159 764.337 459.763C764.317 459.88 764.089 462.045 764.224 461.743L764.225 461.744C763.732 461.594 763.514 461.039 762.956 461.104C762.064 462.004 765.449 463.487 766.02 463.847L766.795 464.328C767.4 464.711 768.006 465.308 768.536 465.792C749.35 458.737 731.314 437.844 727.127 417.798Z"/>
  <path fill="#0B0B0B" fill-opacity="0.39607844" d="M663.596 412.521C671.323 407.591 679.585 403.553 688.222 400.486C690.75 400.414 692.028 400.183 694.396 401.091L695.329 402.075C694.911 405.791 694.087 405.028 695.456 408.211L695.066 409.392C696.615 409.939 697.734 408.517 699.434 408.904C707.336 410.706 715.293 412.127 723.389 412.631C727.468 412.885 730.178 416.453 733.497 413.902C737.731 410.649 743.449 416.595 748.054 416.603C752.981 417.001 769.126 414.097 772.845 416.056L773.056 416.818C772.054 417.777 772.038 417.656 770.636 417.893C767.698 417.726 757.315 416.651 756.202 419.508C756.106 419.546 752.009 419.506 751.285 419.551C750.88 419.511 750.577 419.401 750.143 419.29C748.5 418.911 746.827 418.83 745.156 418.629L744.637 418.13C742.519 416.11 742.896 415.765 740.142 416.085C736.506 416.508 735.805 412.289 733.442 414.748C731.293 416.986 727.637 415.578 723.784 416.007C705.558 414.055 681.74 411.224 663.596 412.521ZM673.198 411.141C677.607 411.441 688.174 411.038 691.92 408.463C692.15 407.882 691.107 407.344 692.219 406.465C692.501 406.242 693.092 405.771 693.204 405.45C693.079 405.303 692.954 405.156 692.829 405.009C692.805 404.952 692.781 404.895 692.756 404.837C693.45 403.449 694.115 404.256 693.871 402.497C689.153 403.959 689.496 406.996 683.684 404.434C682.336 403.84 672.406 407.364 674.61 409.324C674.985 410.398 673.996 410.607 673.198 411.141Z"/>
  <path fill="#0B0B0B" fill-opacity="0.21568628" d="M693.871 402.497C694.115 404.256 693.45 403.449 692.756 404.837C692.781 404.895 692.805 404.952 692.829 405.009C692.954 405.156 693.079 405.303 693.204 405.45C693.092 405.771 692.501 406.242 692.219 406.465C691.107 407.344 692.15 407.882 691.92 408.463C688.174 411.038 677.607 411.441 673.198 411.141C673.996 410.607 674.985 410.398 674.61 409.324C672.406 407.364 682.336 403.84 683.684 404.434C689.496 406.996 689.153 403.959 693.871 402.497Z"/>
  <path fill="#0B0B0B" fill-opacity="0.65882355" d="M811.057 427.667C831.047 448.445 839.604 477.041 839.123 505.46C839.09 507.208 839.034 508.955 838.956 510.701C838.06 513.879 838.026 515.794 837.855 519.041C837.195 519.554 834.001 519.473 833.512 518.797L831.703 516.318C831.003 515.369 828.998 510.771 829.292 510.131C830.741 511.051 830.806 512.423 831.682 508.706C832.035 507.208 825.999 504.401 825.35 502.532C824.699 500.657 823.488 500.676 821.742 500.321C818.493 495.328 816.237 492.25 812.612 487.543C815.109 488.616 816.063 490.822 817.945 491.381C819.741 491.914 822.911 495.26 824.25 494.629C826.863 493.397 830.693 497.353 832.456 496.681C832.585 496.184 832.331 494.665 832.318 493.927C840.701 474.875 828.178 454.936 818.546 438.674C816.368 434.996 812.323 431.852 811.057 427.667Z"/>
  <path fill="#0B0B0B" fill-opacity="0.61960787" d="M751.285 419.551C752.009 419.506 756.106 419.546 756.202 419.508C757.315 416.651 767.698 417.726 770.636 417.893C769.209 419.355 766.91 419.793 766.758 420.081C767.373 421.468 768.142 421.4 769.498 422.097C772.268 423.52 781.599 428.636 781.301 432.283C781.09 434.872 783.975 436.154 784.335 435.636C783.777 430.822 790.039 439.59 791.988 438.678C792.192 437.793 787.732 434.686 787.684 432.959C788.202 432.016 792.33 434.439 793.123 433.832C793.274 433.717 795.192 436.45 795.561 436.877C797.881 439.563 795.591 440.741 795.828 442.322L796.031 442.535C796.443 442.544 798.125 441.925 797.671 443.745C797.147 445.841 792.992 449.601 791.192 450.835C789.489 451.432 787.816 452.344 786.002 452.262C785.438 452.237 783.274 452.65 782.68 452.652C775.194 452.686 777.851 455.089 774.317 459.428C773.518 460.408 769.922 459.752 769.349 461.23C768.538 462.658 770.62 462.256 769.895 463.761C770.515 464.571 769.557 464.21 770.092 465.918L770.071 466.529C769.453 466.262 769.12 466.121 768.536 465.792C768.006 465.308 767.4 464.711 766.795 464.328L766.02 463.847C765.449 463.487 762.064 462.004 762.956 461.104C763.514 461.039 763.732 461.594 764.225 461.744L764.224 461.743C764.089 462.045 764.317 459.88 764.337 459.763C764.498 458.159 764.883 457.761 766.256 458.681C766.277 458.695 769.501 457.38 770.024 457.224L770.081 457.255L769.774 457.249C768.497 455.995 765.549 454.928 768.229 452.862L768.589 452.573C770.479 452.298 770.819 452.372 772.672 451.727C773.646 451.388 776.588 449.107 776.759 449.141C779.147 449.616 782.121 448.595 784.22 449.892C785.441 450.816 788.557 451.34 789.842 450.31C791.598 448.903 790.582 448.605 789.385 447.975C788.926 443.903 788.405 442.374 784.413 439.409C778.626 432.752 769.134 425.438 760.985 422.109C758.416 420.585 754.191 420.232 751.285 419.551Z"/>
  <path fill="#0B0B0B" fill-opacity="0.43137255" d="M786.876 471.377C790.465 471.173 795.243 471.773 798.234 471.213C800.126 471.894 804.09 474.097 806.189 474.922C806.007 474.85 812.514 481.365 813.268 482.156L814.8 483.774C815.194 484.197 817.092 485.608 817.601 485.662C820.453 485.964 822.548 489.953 823.694 490.655C824.589 490.585 826.313 489.765 827.472 490.355C827.579 490.41 830.696 493.504 830.701 493.477C831.316 493.851 831.598 493.712 832.318 493.927C832.331 494.665 832.585 496.184 832.456 496.681C830.693 497.353 826.863 493.397 824.25 494.629C822.911 495.26 819.741 491.914 817.945 491.381C816.063 490.822 815.109 488.616 812.612 487.543C811.829 487.112 808.229 483.412 807.031 482.42C800.532 477.04 794.59 474.407 786.876 471.377Z"/>
  <path fill="#0B0B0B" fill-opacity="0.98431373" d="M825.428 508.814C828.668 512.463 829.65 516.327 832.521 519.827C832.527 519.835 837.622 521.391 837.855 519.041C838.026 515.794 838.06 513.879 838.956 510.701C839.102 521.017 837.525 531.812 835.955 541.996C835.505 544.913 834.741 547.667 834.583 550.644L833.404 550.888C833.677 542.669 830.963 531.922 829.365 523.761L828.622 520.492C827.704 516.293 826.622 512.89 825.428 508.814Z"/>
  <path fill="#0B0B0B" fill-opacity="0.40000001" d="M701.882 396.484C714.098 393.36 724.23 392.91 736.68 393.079C736.709 393.748 737.117 396.115 736.991 396.415C728.172 396.34 719.929 397.924 711.249 396.861C708.277 396.497 705.077 396.837 701.882 396.484Z"/>
  <path fill="#0B0B0B" fill-opacity="0.94509804" d="M742.351 427.875L743.063 428.225C744.947 430.719 746.705 432.953 748.912 435.175C755.268 441.228 758.121 442.305 765.906 445.654C763.62 446.535 762.955 447.239 760.913 448.206C759.724 448.123 757.257 448.298 756.738 446.787C755.709 443.788 752.539 445.064 749.815 442.857C747.055 440.619 745.319 438.337 742.691 436.141C741.978 435.603 741.094 435.488 741.018 434.481C740.99 434.105 741.373 433.656 741.662 433.744C745.85 435.027 748.212 440.021 751.985 442.266C752.431 442.682 752.777 443.121 753.312 443.427C754.456 444.032 756.156 441.767 754.528 441.147C752.728 440.462 751.112 438.409 749.742 437.315C747.344 435.402 745.562 432.917 743.654 430.539C742.673 429.317 742.714 429.403 742.351 427.875Z"/>
  <path fill="#FFFFFF" fill-opacity="0.65882355" d="M743.063 428.225C751.777 428.39 742.684 424.115 744.242 420.124C744.105 420.036 744.147 420.092 744.103 419.964C744.947 418.829 748.022 419.274 749.286 419.321L748.404 419.736C747.479 420.127 745.56 421.793 746.361 422.846C747.934 424.913 753.101 424.525 752.616 428.215C751.97 433.124 754.505 433.2 748.912 435.175C746.705 432.953 744.947 430.719 743.063 428.225Z"/>
  <path fill="#0B0B0B" fill-opacity="0.27058825" d="M770.092 465.918C773.173 465.687 774.05 464.43 777.509 465.585C778.469 465.906 781.625 465.712 782.806 466.354C783.977 467.041 788.314 467.411 788.643 468.338C788.133 469.078 786.921 468.39 786.437 468.737C786.936 469.652 789.839 468.658 790.761 469.033C793.255 470.047 795.664 470.599 798.234 471.213C795.243 471.773 790.465 471.173 786.876 471.377C782.573 470.597 774.258 468.007 770.071 466.529L770.092 465.918Z"/>
  <path fill="#0B0B0B" fill-opacity="0.82352942" d="M765.906 445.654C769.904 447.027 772.067 447.712 776.269 448.357C769.913 448.766 773.749 448.941 768.589 452.573L768.229 452.862C765.549 454.928 768.497 455.995 769.774 457.249C766.413 456.168 766.75 455.673 764.574 452.911C763.668 451.762 762.281 448.552 761.297 449.302C760.476 449.657 760.709 451.985 760.702 452.001C759.547 454.814 756.495 450.168 760.913 448.206C762.955 447.239 763.62 446.535 765.906 445.654Z"/>
  <path fill="#0B0B0B" fill-opacity="0.68235296" d="M821.742 500.321C823.488 500.676 824.699 500.657 825.35 502.532C825.999 504.401 832.035 507.208 831.682 508.706C830.806 512.423 830.741 511.051 829.292 510.131C828.998 510.771 831.003 515.369 831.703 516.318L833.512 518.797C834.001 519.473 837.195 519.554 837.855 519.041C837.622 521.391 832.527 519.835 832.521 519.827C829.65 516.327 828.668 512.463 825.428 508.814C824.24 506.474 822.861 502.852 821.742 500.321Z"/>
  <path fill="#FFFFFF" fill-opacity="0.23921569" d="M737.103 418.219C740.51 417.844 741.855 418.353 745.156 418.629C746.827 418.83 748.5 418.911 750.143 419.29L749.286 419.321C748.022 419.274 744.947 418.829 744.103 419.964C744.147 420.092 744.105 420.036 744.242 420.124C742.684 424.115 751.777 428.39 743.063 428.225L742.351 427.875C741.834 426.215 739.53 422.717 738.57 420.904C738.068 419.842 737.71 419.225 737.103 418.219Z"/>
  <path d="M482.506 254.398C482.875 261.243 481.661 294.686 489.546 296.49C489.73 299.86 489.803 303.168 490.014 306.606C484.227 292.304 479.095 269.756 482.506 254.398Z"/>
  <path fill="#0B0B0B" fill-opacity="0.6901961" d="M726.577 416.596C727.434 416.696 730.547 417.351 731.003 417.169C736.991 414.78 734.12 416.681 737.103 418.219C737.71 419.225 738.068 419.842 738.57 420.904C737.133 421.662 736.396 422.226 735.19 423.326C733.618 424.759 731.556 422.707 730.892 421.296C730.024 419.453 728.827 418.831 727.127 417.798L726.577 416.596Z"/>
  <path fill="#FFFFFF" fill-opacity="0.90196079" d="M760.985 422.109C769.134 425.438 778.626 432.752 784.413 439.409C783.778 440.033 783.192 440.654 782.26 440.153C782.241 439.193 783.078 439.516 781.904 438.322C779.435 435.81 776.914 433.585 774.229 431.331C773.046 430.338 771.34 429.28 770.074 428.391C769.893 428.287 767.633 426.702 767.547 426.757C766.005 427.81 766.738 427.659 765.026 427.328C762.885 426.914 764.223 427.697 763.148 425.794C760.777 425.694 759.152 423.451 760.985 422.109Z"/>
  <path fill="#0B0B0B" fill-opacity="0.56470591" d="M723.784 416.007C727.637 415.578 731.293 416.986 733.442 414.748C735.805 412.289 736.506 416.508 740.142 416.085C742.896 415.765 742.519 416.11 744.637 418.13L745.156 418.629C741.855 418.353 740.51 417.844 737.103 418.219C734.12 416.681 736.991 414.78 731.003 417.169C730.547 417.351 727.434 416.696 726.577 416.596C725.613 416.413 724.739 416.249 723.784 416.007Z"/>
  <path fill="#0B0B0B" fill-opacity="0.70980394" d="M776.269 448.357C780.163 448.81 785.567 448.799 789.385 447.975C790.582 448.605 791.598 448.903 789.842 450.31C788.557 451.34 785.441 450.816 784.22 449.892C782.121 448.595 779.147 449.616 776.759 449.141C776.588 449.107 773.646 451.388 772.672 451.727C770.819 452.372 770.479 452.298 768.589 452.573C773.749 448.941 769.913 448.766 776.269 448.357Z"/>
  <path fill="#FFFFFF" fill-opacity="0.92941177" d="M448.854 864.649C450.876 864.278 452.864 863.471 453.464 865.864C451.277 866.034 450.116 866.483 448.854 864.649Z"/>
  <path fill="#707173" d="M834.583 550.644C834.513 550.99 834.357 552.787 833.752 552.675C833.436 552.28 833.455 551.422 833.404 550.888L834.583 550.644Z"/>
  <path fill="#FFFFFF" d="M478.122 852.261C447.079 808.255 427.991 737.573 461.091 689.783C491.177 646.345 548.669 639.525 596.513 651.488C635.307 661.188 668.206 680.384 700.503 703.368C703.629 705.947 711.662 710.341 715.279 712.345C717.457 713.648 719.685 714.729 721.946 715.864C728.806 719.328 742.948 725.543 750.342 726.943C789.882 738.702 834.212 731.291 872.229 717.177C870.517 721.871 867.94 726.545 865.639 731.01C845.363 761.474 827.601 780.714 788.926 785.2C731.458 791.866 715.193 748.063 678.278 716.813C654.388 696.588 618.611 684.177 586.75 687.475C554.213 690.987 524.45 707.417 504.139 733.077C476.239 767.937 473.448 809.984 478.122 852.261Z"/>
  <path fill="#0B0B0B" fill-opacity="0.9254902" d="M858.502 578.481C858.812 579.93 859.023 580.675 859.492 582.06C860.254 586.216 862.626 596.737 866.713 598.567C891.788 609.799 923.219 610.8 950.294 609.565C959.422 609.148 954.874 593.826 953.789 588.32C957.503 595.419 957.687 631.343 954.218 637.474L953.597 636.697C948.369 642.393 944.955 647.972 938.909 653.412C933.894 657.925 925.437 662.812 921.336 667.506C915.824 673.814 909.761 682.348 904.792 689.282C899.984 695.991 894.102 703.209 889.541 709.893L895.618 708.393C893.712 709.638 892.793 710.285 890.737 711.195C890.803 711.205 889.224 710.96 889.349 710.946C887.104 711.194 886.555 710.166 885.499 709.791C884.07 710.112 884.771 712.613 883.287 713.228C882.501 713.553 881.64 712.129 881.27 712.539C879.342 714.678 877.015 715.112 875.17 712.627C874.8 712.12 875.524 711.062 875.407 710.303L875.285 710.178C872.152 711.189 873.759 715.038 873.07 717.101C871.702 721.062 868.974 728.353 865.639 731.01C867.94 726.545 870.517 721.871 872.229 717.177C834.212 731.291 789.882 738.702 750.342 726.943C751.143 726.88 751.944 726.833 752.747 726.803C752.524 726.811 757.934 725.653 757.929 725.654L757.938 725.358C756.033 723.769 754.268 725.054 753.71 723.99C753.858 723.836 754.035 723.713 754.204 723.584C754.825 723.108 755.388 722.766 755.806 722.088C756.41 721.107 756.704 720.533 757.888 720.273C758.931 720.044 759.954 719.829 760.95 719.427C762.111 718.958 762.477 718.595 762.928 717.445C763.319 716.447 763.391 715.022 762.895 714.047C762.463 713.199 761.656 712.62 760.763 712.337C759.483 711.931 757.679 711.549 757.006 710.245C756.901 710.041 756.819 709.877 756.892 709.656C757.405 709.25 760.757 711.941 762.475 710.882C763.7 710.126 765.984 711.704 766.812 712.389L766.967 712.36C768.229 710.52 762.605 709.871 761.789 709.797C758.464 709.497 757.642 707.591 755.847 705.328C767.968 710.116 775.247 711.927 788.335 713.059C790.822 714.577 795.027 714.744 797.942 714.758C832.538 714.92 870.144 698.342 893.315 672.549C894.341 671.407 896.551 668.564 897.131 667.17L896.401 667.004C895.163 668.413 894.598 669.256 893.544 670.824L893.269 670.555C894.727 668.295 896.199 664.118 896.899 661.537C899.258 652.838 891.337 638.208 881.949 636.802C876.361 635.198 865.629 625.794 862.351 620.325C853.581 605.697 855.062 594.01 858.502 578.481Z"/>
  <path fill="#FFFFFF" d="M642.365 199.86C662.366 175.88 707.631 148.634 735.638 173.354C756.066 191.383 766.444 226.091 771.092 252.04C766.05 249.355 761.04 246.609 756.065 243.801C754.624 242.932 753.62 242.322 752.054 241.694L750.106 240.527C743.886 236.754 724.235 227.338 717.377 224.814C704.014 218.876 690.221 214.025 676.386 209.334C665.273 206.083 653.138 203.137 642.365 199.86Z"/>
  <path fill="#FFFFFF" d="M889.541 709.893C894.102 703.209 899.984 695.991 904.792 689.282C909.761 682.348 915.824 673.814 921.336 667.506C925.437 662.812 933.894 657.925 938.909 653.412C944.955 647.972 948.369 642.393 953.597 636.697L954.218 637.474C947.699 663.428 936.813 686.568 912.958 700.824C907.55 704.125 901.716 706.671 895.618 708.393L889.541 709.893Z"/>
  <path fill="#0B0B0B" fill-opacity="0.35294119" d="M676.386 209.334C690.221 214.025 704.014 218.876 717.377 224.814C717.211 226.085 717.154 227.608 716.95 228.802C716.677 230.402 716.125 232.004 716.889 233.693C716.91 233.739 717.587 233.762 718.015 234.015L718.118 234.208C718 234.324 717.881 234.44 717.763 234.556L717.761 234.65C720.283 236.616 721.51 235.092 723.215 236.571C723.769 237.053 725.242 238.466 725.909 238.229C725.795 238.081 725.681 237.932 725.567 237.784C725.838 237.7 728.495 237.516 728.563 236.774C728.825 233.941 731.806 235.312 733.796 235.79C732.555 237.123 733.76 238.841 734.455 238.489C734.482 237.998 733.568 234.989 736.415 237.572C738.359 239.336 736.333 238.449 740.069 239.053C745.59 239.946 742.844 240.21 742.183 242.76L742.242 242.917C743.708 243.51 743.719 240.865 744.982 240.737C746.679 240.564 748.399 240.594 750.106 240.527L752.054 241.694C751.368 241.605 746.294 240.633 746.403 242.502C746.468 243.602 749.889 245.463 747.751 247.764C745.945 249.707 744.627 245.929 742.532 246.724C742.179 246.839 740.835 246.592 740.581 246.827C740.632 247.173 743.19 247.934 744.374 248.92C741.319 249.239 738.862 249.607 738.657 253.271C739.688 255.247 739.945 257.317 739.103 257.137C744.434 258.278 742.712 260.002 742.61 262.158C743.266 263.102 743.652 263.489 744.444 264.334C740.466 262.693 730.946 257.597 727.087 255.367C726.117 253.123 726.806 254.253 725.649 253.285C725.981 252.438 728.104 250.047 724.347 248.696C722.833 248.152 714.83 244.243 715.345 244.23C709.556 244.379 710.937 241.958 705.999 241.203C701.85 240.881 700.764 237.988 696.75 237.682C695.996 237.625 694.466 238.932 693.254 239.29L689.861 237.754C691.984 234.747 693.672 236.735 697.639 236.253L697.677 236.192L697.635 236.126C696.139 235.88 693.436 235.934 692.846 234.619C695.579 233.48 699.144 235.861 700.546 231.524C702.017 230.363 701.21 230.627 703.028 230.635C705.249 232.213 705.709 233.584 706.261 236.193C709.591 236.371 713.886 234.469 712.033 230.622C709.999 226.396 703.929 223.073 699.655 221.661C698.377 222.097 698.188 222.193 696.863 222.348C695.246 220.985 695.744 221.336 695.073 218.877C692.267 218.364 686.911 217.571 684.459 216.702L684.437 215.021C680.511 211.724 678.597 214.336 676.386 209.334Z"/>
  <path fill="#0B0B0B" fill-opacity="0.60000002" d="M740.235 696.463C745.802 700.135 750.154 702.201 755.847 705.328C757.642 707.591 758.464 709.497 761.789 709.797C762.605 709.871 768.229 710.52 766.967 712.36L766.812 712.389C765.984 711.704 763.7 710.126 762.475 710.882C760.757 711.941 757.405 709.25 756.892 709.656C756.819 709.877 756.901 710.041 757.006 710.245C757.679 711.549 759.483 711.931 760.763 712.337C761.656 712.62 762.463 713.199 762.895 714.047C763.391 715.022 763.319 716.447 762.928 717.445C762.477 718.595 762.111 718.958 760.95 719.427C759.954 719.829 758.931 720.044 757.888 720.273C756.704 720.533 756.41 721.107 755.806 722.088C755.388 722.766 754.825 723.108 754.204 723.584C754.035 723.713 753.858 723.836 753.71 723.99C754.268 725.054 756.033 723.769 757.938 725.358L757.929 725.654C757.934 725.653 752.524 726.811 752.747 726.803C751.944 726.833 751.143 726.88 750.342 726.943C742.948 725.543 728.806 719.328 721.946 715.864C723.835 715.183 722.943 715.723 723.879 714.303C725.298 713.849 727.885 714.262 727.875 713.816C727.14 712.793 725.762 713.221 725.603 712.687C726.135 712.067 726.769 711.934 726.72 710.988L726.714 710.238C728.67 709.691 729.572 709.656 731.669 709.804C732.264 709.864 733.676 708.858 733.871 708.409C734.413 706.753 736.772 706.841 737.577 705.866C738.673 704.539 738.543 705.448 739.627 705.327C739.647 705.296 739.667 705.265 739.687 705.234C739.024 704.273 738.108 702.386 739.236 701.336C740.794 699.886 740.271 698.45 740.235 696.463Z"/>
  <path fill="#0B0B0B" fill-opacity="0.32549021" d="M719.567 678.605C725.586 683.44 730.855 689.29 737.534 694.42L740.235 696.463C740.271 698.45 740.794 699.886 739.236 701.336C738.108 702.386 739.024 704.273 739.687 705.234C739.667 705.265 739.647 705.296 739.627 705.327C738.543 705.448 738.673 704.539 737.577 705.866C736.772 706.841 734.413 706.753 733.871 708.409C733.676 708.858 732.264 709.864 731.669 709.804C729.572 709.656 728.67 709.691 726.714 710.238C724.494 710.996 722.349 712.41 719.91 711.65C718.853 711.321 718.957 710.579 717.465 710.781C716.447 711.863 716.598 711.827 715.279 712.345C711.662 710.341 703.629 705.947 700.503 703.368C702.727 702.69 701.488 701.341 702.674 701.445C702.705 701.484 702.736 701.523 702.767 701.563C702.949 701.851 703.13 702.139 703.312 702.427C703.52 702.714 703.729 703.001 703.937 703.289C704.419 704.067 704.981 704.981 705.832 705.422C706.189 705.607 706.928 706.212 707.308 706.233C707.637 706.252 707.96 705.631 708.124 705.452C708.352 705.203 708.422 704.745 708.722 704.519C712.65 705.389 710.96 705.352 713.822 707.231C714.089 707.228 715.888 706.488 716.044 706.361C717.478 705.19 722.734 706.083 723.435 705.721L723.388 705.62C722.517 705.223 717.858 704.322 718.117 702.49C718.352 702.247 718.216 702.324 718.512 702.239C719.398 702.531 719.844 703.729 719.696 701.832C719.221 701.948 724.523 703.278 725.009 703.426L725.003 703.577C724.62 704.051 723.931 704.206 723.605 704.694C724.79 704.854 725.015 704.723 725.781 703.818C725.957 703.771 728.517 704.754 728.516 704.753C731.004 706.521 733.56 701.307 733.262 699.755C732.637 696.492 734.858 697.865 734.184 696.504C733.561 696.414 733.423 697.232 732.813 696.723C732.524 695.872 733.997 695.745 732.806 694.869C731.198 693.682 729.089 692.765 727.888 691.126C726.563 689.319 725.546 689.412 724.919 686.994C724.551 685.573 722.873 683.11 721.879 682.045C720.396 680.456 720.374 680.617 719.567 678.605Z"/>
  <path fill="#0B0B0B" fill-opacity="0.98431373" d="M881.949 636.802C891.337 638.208 899.258 652.838 896.899 661.537C896.199 664.118 894.727 668.295 893.269 670.555L893.544 670.824C894.598 669.256 895.163 668.413 896.401 667.004L897.131 667.17C896.551 668.564 894.341 671.407 893.315 672.549C870.144 698.342 832.538 714.92 797.942 714.758C795.027 714.744 790.822 714.577 788.335 713.059C824.015 713.541 868.248 699.827 891.477 671.142C894.964 666.836 897.108 659.814 895.869 654.252C893.814 645.022 889.372 641.668 881.949 636.802Z"/>
  <defs>
    <linearGradient id="gradient_1" gradientUnits="userSpaceOnUse" x1="305.94528" y1="317.96072" x2="304.0784" y2="311.38416">
      <stop offset="0" stop-color="black" stop-opacity="0.93333334"/>
      <stop offset="1" stop-color="black"/>
    </linearGradient>
  </defs>
  <path fill="url(#gradient_1)" d="M316.85 307.749L316.161 309.719L297.684 322.003C293.404 319.206 293.171 322.034 291.627 326.405C290.753 327.277 281.769 333.762 280.615 334.452C282.342 332.034 284.598 331.403 285.165 328.793C285.346 327.96 285.936 325.087 285.193 324.52C284.859 324.486 284.468 324.667 284.255 324.912C282.107 327.377 281.041 323.911 278.285 324.689C276.195 325.279 275.42 325.382 273.515 326.627C271.341 328.049 267.98 328.667 265.413 329.24C273.348 324.214 307.459 310.444 316.85 307.749Z"/>
  <path fill="#0B0B0B" fill-opacity="0.42745098" d="M717.377 224.814C724.235 227.338 743.886 236.754 750.106 240.527C748.399 240.594 746.679 240.564 744.982 240.737C743.719 240.865 743.708 243.51 742.242 242.917L742.183 242.76C742.844 240.21 745.59 239.946 740.069 239.053C736.333 238.449 738.359 239.336 736.415 237.572C733.568 234.989 734.482 237.998 734.455 238.489C733.76 238.841 732.555 237.123 733.796 235.79C731.806 235.312 728.825 233.941 728.563 236.774C728.495 237.516 725.838 237.7 725.567 237.784C725.681 237.932 725.795 238.081 725.909 238.229C725.242 238.466 723.769 237.053 723.215 236.571C721.51 235.092 720.283 236.616 717.761 234.65L717.763 234.556C717.881 234.44 718 234.324 718.118 234.208L718.015 234.015C717.587 233.762 716.91 233.739 716.889 233.693C716.125 232.004 716.677 230.402 716.95 228.802C717.154 227.608 717.211 226.085 717.377 224.814Z"/>
  <path d="M459.781 326.897C460.922 328.707 470.22 345.829 470.786 347.455C473.148 359.546 467.586 354.573 460.999 350.611C459.414 349.542 451.018 338.89 449.758 336.946C452.513 338.616 452.953 340.27 455.252 342.247C457.947 339.591 458.781 345.24 462.832 343.759C467.929 341.895 462.241 333.156 460.644 330.239C460.292 329.045 460.047 328.118 459.781 326.897Z"/>
  <path fill="#0B0B0B" fill-opacity="0.43921569" d="M693.254 239.29C694.466 238.932 695.996 237.625 696.75 237.682C700.764 237.988 701.85 240.881 705.999 241.203C710.937 241.958 709.556 244.379 715.345 244.23C714.83 244.243 722.833 248.152 724.347 248.696C728.104 250.047 725.981 252.438 725.649 253.285C726.806 254.253 726.117 253.123 727.087 255.367C716.14 250.322 704.094 244.603 693.254 239.29Z"/>
  <path fill="#0B0B0B" fill-opacity="0.098039217" d="M621.06 229.33L623.872 236.396C623.98 239.409 624.374 243.028 621.207 245.1C620.157 245.787 618.048 243.726 617.737 242.661C617.132 240.595 616.708 241.093 615.259 239.808C615.059 239.838 614.949 240.068 614.778 240.175C614.601 240.286 614.433 240.236 614.272 240.132C614.068 240 613.887 239.836 613.691 239.693C613.158 239.305 612.602 239.021 612.024 238.711C611.5 238.431 611.033 238.053 610.559 237.698C610.257 237.472 609.949 237.254 609.644 237.032C608.964 236.352 608.121 235.234 607.521 234.451C611.366 233.767 613.078 233.978 616.903 233.728C616.433 233.103 615.696 232.638 615.422 231.873L615.597 231.619C618.399 231.794 620.087 235.652 621.06 229.33Z"/>
  <path d="M460.644 330.239C462.241 333.156 467.929 341.895 462.832 343.759C458.781 345.24 457.947 339.591 455.252 342.247C452.953 340.27 452.513 338.616 449.758 336.946C449.388 336.547 449.227 336.357 448.899 335.918C453.784 332.105 452.932 334.247 457.392 333.744C457.104 333.142 457.073 333.41 457.194 332.883C459.537 332.025 459.637 334.265 460.644 330.239Z"/>
  <path d="M623.872 236.396L624.684 238.376C624.953 239.132 625.222 239.889 625.497 240.643L625.538 240.759C625.689 242.461 625.592 244.256 625.716 245.78C626.024 249.552 629.741 254.339 624.678 256.419L623.752 256.169C621.322 253.783 612.009 240.527 609.644 237.032C609.949 237.254 610.257 237.472 610.559 237.698C611.033 238.053 611.5 238.431 612.024 238.711C612.602 239.021 613.158 239.305 613.691 239.693C613.887 239.836 614.068 240 614.272 240.132C614.433 240.236 614.601 240.286 614.778 240.175C614.949 240.068 615.059 239.838 615.259 239.808C616.708 241.093 617.132 240.595 617.737 242.661C618.048 243.726 620.157 245.787 621.207 245.1C624.374 243.028 623.98 239.409 623.872 236.396Z"/>
  <path fill="#0B0B0B" fill-opacity="0.26666668" d="M744.374 248.92C743.19 247.934 740.632 247.173 740.581 246.827C740.835 246.592 742.179 246.839 742.532 246.724C744.627 245.929 745.945 249.707 747.751 247.764C749.889 245.463 746.468 243.602 746.403 242.502C746.294 240.633 751.368 241.605 752.054 241.694C753.62 242.322 754.624 242.932 756.065 243.801C751.496 244.844 751.159 246.875 754.708 248.342C758.041 249.72 755.393 250.183 754.128 250.715C753.385 251.027 753.065 248.267 750.376 249.688L750.335 249.813L750.304 249.803C750.098 251.05 750.336 250.948 750.804 251.92C750.236 252.815 747.386 254.272 746.93 253.759C746.477 253.248 744.711 249.671 744.374 248.92Z"/>
  <path fill="#0B0B0B" fill-opacity="0.31764707" d="M674.447 231.409C675.129 231.078 675.489 231.14 675.767 230.354C675.969 230.227 675.77 229.298 675.958 229.331C677.333 229.567 680.972 230.366 682.233 230.581C686.069 231.403 689.575 231.99 692.846 234.619C693.436 235.934 696.139 235.88 697.635 236.126L697.677 236.192L697.639 236.253C693.672 236.735 691.984 234.747 689.861 237.754C685.244 235.7 679.196 233.248 674.447 231.409Z"/>
  <path fill="#0B0B0B" fill-opacity="0.21176471" d="M655.889 224.227C656.157 224.187 658.063 224.098 658.312 223.696C658.329 223.576 658.346 223.456 658.363 223.335C658.352 223.179 658.341 223.022 658.329 222.866C658.347 222.82 658.365 222.775 658.383 222.729C658.767 222.581 658.99 222.554 659.408 222.62L659.447 222.746C659.334 222.891 659.22 223.035 659.106 223.18C659.214 223.596 660.183 223.918 660.523 223.807C661.738 221.724 662.333 221.787 665.447 222.894C668.362 223.931 671.882 226.577 675.22 226.829C675.39 226.867 677.872 228.009 678.293 228.17C676.516 228.289 670.043 226.619 669.409 227.777C669.518 227.928 669.627 228.078 669.735 228.229C669.43 228.467 668.795 228.785 668.437 228.98C664.291 227.29 660.081 225.796 655.889 224.227Z"/>
  <path d="M628.928 251.383C631.313 258.406 633.296 265.853 635.31 273.009C632.137 268.653 626.266 260.648 623.752 256.169L624.678 256.419C629.086 261.114 628.881 255.489 628.928 251.383Z"/>
  <path fill="#0B0B0B" fill-opacity="0.77254903" d="M873.07 717.101C873.759 715.038 872.152 711.189 875.285 710.178L875.407 710.303C875.524 711.062 874.8 712.12 875.17 712.627C877.015 715.112 879.342 714.678 881.27 712.539C881.64 712.129 882.501 713.553 883.287 713.228C884.771 712.613 884.07 710.112 885.499 709.791C886.555 710.166 887.104 711.194 889.349 710.946C889.224 710.96 890.803 711.205 890.737 711.195C886.932 712.417 885.833 713.988 881.272 714.655C879.922 714.852 874.871 716.581 873.07 717.101Z"/>
  <path fill="#0B0B0B" fill-opacity="0.41568628" d="M715.279 712.345C716.598 711.827 716.447 711.863 717.465 710.781C718.957 710.579 718.853 711.321 719.91 711.65C722.349 712.41 724.494 710.996 726.714 710.238L726.72 710.988C726.769 711.934 726.135 712.067 725.603 712.687C725.762 713.221 727.14 712.793 727.875 713.816C727.885 714.262 725.298 713.849 723.879 714.303C722.943 715.723 723.835 715.183 721.946 715.864C719.685 714.729 717.457 713.648 715.279 712.345Z"/>
  <path d="M551.156 448.776L551.242 448.7C552.634 447.504 558.322 445.008 558.944 446.565C558.835 447.158 558.822 446.947 558.98 447.637C556.417 450.437 551.012 456.668 548.606 458.938C549.501 456.997 550.654 455.434 551.601 453.508C553.743 449.155 554.118 451.258 551.156 448.776Z"/>
  <path fill="#0B0B0B" fill-opacity="0.06666667" d="M462.067 865.236C464.681 864.414 463.438 865.409 464.789 863.878C465.071 863.775 464.927 863.794 465.222 863.82C465.568 864.187 465.369 864.54 465.627 864.745C466.115 864.724 466.116 864.162 466.728 864.305C467.325 865.01 465.991 865.261 465.901 866.526C466.396 867.162 467.08 866.277 467.883 866.72C468.112 867.081 468.054 866.899 468.101 867.248C467.681 867.594 467.02 867.46 466.533 867.728L466.402 867.961C467.57 870.137 471.027 863.462 469.52 874.924C467.627 871.788 464.447 868.237 462.067 865.236Z"/>
  <path fill="#0B0B0B" fill-opacity="0.12941177" d="M909.033 421.654C910.77 423.12 908.931 425.299 910.198 426.904L910.261 426.886C910.527 426.404 910.66 423.927 910.729 423.179C912.116 424.968 913.112 434.87 910.556 433.25L910.465 433.251C910.103 432.881 909.949 432.554 909.85 432.047C909.762 432.061 908.774 433.262 908.417 433.536C908.616 430.654 908.676 423.999 909.033 421.654Z"/>
  <path d="M625.538 240.759C626.406 243.616 628.373 248.654 628.928 251.383C628.881 255.489 629.086 261.114 624.678 256.419C629.741 254.339 626.024 249.552 625.716 245.78C625.592 244.256 625.689 242.461 625.538 240.759Z"/>
  <path fill="#0B0B0B" fill-opacity="0.27058825" d="M668.437 228.98C668.795 228.785 669.43 228.467 669.735 228.229C669.627 228.078 669.518 227.928 669.409 227.777C670.043 226.619 676.516 228.289 678.293 228.17C679.973 229.464 680.608 229.091 682.233 230.581C680.972 230.366 677.333 229.567 675.958 229.331C675.77 229.298 675.969 230.227 675.767 230.354C675.489 231.14 675.129 231.078 674.447 231.409C672.733 230.671 671.034 230.011 669.3 229.328L668.437 228.98Z"/>
  <path fill="#0B0B0B" fill-opacity="0.070588239" d="M151.667 413.933C152.757 415.992 153.695 413.6 153.976 415.294C154.03 415.615 149.299 421.267 148.497 421.591C148.317 421.664 146.745 420.297 146.272 420C147.085 418.918 150.716 414.725 151.667 413.933Z"/>
  <path d="M291.627 326.405C293.171 322.034 293.404 319.206 297.684 322.003C296.248 323.287 293.265 325.346 291.627 326.405Z"/>
</svg>
