<?xml version="1.0" encoding="utf-8"?>
<svg xmlns="http://www.w3.org/2000/svg"
     width="1024"
     height="1024"
     viewBox="0 0 1024 1024"
     role="img"
     aria-labelledby="title desc">
  <title id="title">Connect the whole body</title>
  <desc id="desc">A walking figure coordinating opposite arm and leg through a fluid stride.</desc>
  <path fill="#EDEDF0" d="M484.698 159.98C480.528 155.798 476.257 149.877 475.071 143.967C474.034 140.372 475.895 134.622 475.487 131.285C472.316 105.356 480.285 82.744 508.885 77.5457C539.17 72.0413 560.315 86.0752 563.853 117.616C564.619 124.443 564.878 129.457 563.615 136.454C563.196 140.652 564.309 146.215 563.609 150.259C561.202 164.179 559.127 180.459 551.782 192.684C550.252 195.231 544.172 195.762 541.413 196.207C540.819 199.33 540.425 204.95 540.09 208.278C548.361 214.168 555.192 218.818 563.973 223.928C574.671 230.155 589.79 232.151 597.386 241.819C607.657 254.891 610.895 272.154 609.944 288.393C609.462 296.632 608.754 306.745 611.012 314.593C613.088 321.813 615.218 329.014 617.275 336.284C619.495 344.13 621.48 355.307 624.358 362.751C628.556 373.61 635.876 383.826 639.918 394.999C643.715 405.492 645.272 416.026 648.283 426.525C652.777 442.191 658.625 461.329 666.086 475.707C670.003 483.256 677.792 494.628 682.643 501.555C682.521 508.896 682.989 515.915 683.054 523.24C680.435 527.774 672.43 541.863 665.894 541.825C660.189 541.791 659.437 547.977 653.894 544.831C651.993 543.752 651.358 543.565 649.513 544.507C648.633 543.259 648.118 540.016 647.757 538.365C646.644 537.309 645.854 536.83 645.636 535.343C646.466 531.317 650.174 529.335 653.357 525.795L653.769 518.598C653.704 518.451 653.639 518.305 653.574 518.158L653.231 517.434C650.025 510.575 644.829 506.029 642.344 498.529C639.852 491.541 641.626 482.623 637.398 476.299C624.702 457.313 607.509 441.062 597.065 420.53C588.08 402.865 586.361 382.237 576.771 364.627C576.324 374.819 573.751 386.108 574.952 396.077C575.993 404.725 579.207 413.149 579.95 422.104C580.582 429.716 578.189 437.873 578.75 445.047C579.757 457.937 584.787 472.691 585.335 485.626C587.45 535.616 578.321 594.031 556.953 639.218C557.89 649.047 556.959 659.118 556.897 669.003C556.845 677.248 557.309 685.835 556.477 694.006C555.511 703.727 553.369 713.165 553.541 722.994C553.695 733.815 556.809 744.342 559.063 754.85C560.091 759.645 561.506 764.657 562.16 769.509C566.424 801.158 565.324 833.79 576.864 864.103C580.234 872.956 584.01 881.488 589.763 889.094C603.782 906.535 625.729 919.502 647.477 924.231C648.866 924.868 650.624 926.013 651.415 927.341C655.434 934.154 646.167 937.844 641.178 939.427C620.903 945.861 597.783 951.542 577.53 941.983C575.079 940.826 572.026 939.662 569.333 938.773C563.208 936.75 554.373 937.432 550.149 931.692C548.384 928.86 548.392 921.874 548.624 918.607C549.009 913.186 549.638 907.731 549.488 902.227C549.356 895.615 548.327 889.052 546.429 882.717C541.933 867.421 533.848 847.797 527.212 833.141C518.095 813.007 506.63 793.304 501.825 771.387C499.433 760.474 499.156 746.73 498.968 735.363C498.937 733.495 500.559 722.448 500.894 719.643C504.531 689.168 493.407 662.29 479.127 635.83C477.995 645.606 477.345 665.724 474.353 674.26C467.778 693.016 446.823 709.307 439.846 728.967C436.127 739.448 436.033 747.463 433.467 757.501C429.209 774.1 421.659 789.109 414.357 804.367C408.265 817.097 394.568 827.568 389.4 838.235C383.823 849.746 407.179 862.28 412.303 871.414C418.776 882.951 417.621 902.2 434.495 904.329C438.623 905.047 456.587 910.941 457.411 902.94C457.868 898.495 448.537 897.816 445.513 895.936L446.162 895.612C450.158 896.801 452.698 897.488 456.792 898.919C458.158 901.347 458.865 904.448 461.707 904.863C464.342 903.458 464.768 899.717 462.779 897.493C459.747 894.103 455.239 891.984 451.483 889.539C445.963 885.945 443.407 878.573 442.013 872.526C439.222 860.415 434.854 847.774 437.104 835.286C442.982 807.7 464.703 784.442 480.998 762.234C481.971 760.908 488.111 753.961 489.148 753.288C489.683 755.917 456.942 798.125 453.561 804.085C446.735 816.116 435.831 829.257 437.707 844.337C437.865 849.652 445.467 883.013 448.905 884.827C469.434 895.657 475.98 910.072 441.879 908.068C425.559 907.108 417.017 899.429 414.046 881.298C410.925 862.255 380.996 857.107 387.686 835.965C389.898 828.809 398.487 823.167 402.893 817.54C416.122 800.647 424.23 778.253 430.652 757.942C433.852 747.21 433.028 737.244 438.044 726.378C442.806 716.108 450.957 702.449 458.932 694.07C475.757 676.391 474.711 658.351 478.588 634.914C468.572 614.074 460.102 590.491 452.243 568.588C446.413 552.337 437.639 534.17 434.405 517.627C433.432 512.649 433.974 497.054 434.045 491.737C434.191 480.923 435.234 468.807 438.194 458.42C440.174 451.471 443.392 444.51 445.611 437.569C448.085 429.828 447.242 422.995 446.894 415.014C446.704 410.646 447.907 402.535 447.321 398.654C445.135 384.17 436.44 362.106 429.518 349.407C427.921 354.193 424.654 363.468 422.4 367.704C415.394 380.87 412.94 382.082 410.294 397.022L408.997 396.015C410.174 377.691 417.081 376.185 422.143 362.054C429.772 340.76 438.223 320.639 442.389 298.46C444.796 301.917 432.429 339.895 430.669 345.349C437.11 360.118 444.918 376.606 448.621 392.186C449.977 397.891 448.5 406.978 448.253 413.125C447.975 420.022 449.365 428.924 448.209 435.46C447.243 440.913 443.881 447.976 442.29 453.609C436.096 475.53 433.772 493.559 437.336 516.328C440.255 534.98 446.019 543.61 452.219 559.865C459.711 579.503 465.191 598.567 473.857 618.059C482.198 636.822 494.179 656.902 499.939 676.275C507.399 701.368 499.006 732.931 502.338 759.294C505.52 784.465 517.537 805.431 527.986 828.138C534.437 842.248 540.3 856.62 545.561 871.215C546.818 874.778 549.164 882.321 549.628 885.941C551.105 897.469 550.289 899.473 555.307 910.004C553.973 908.698 552.888 907.111 551.383 906.996C550.241 909.42 549.989 914.704 549.697 917.26C548.894 924.271 549.511 931.411 557.693 933.566C568.922 936.522 601.153 950.392 610.661 944.057L611.387 943.93C613.895 945.823 619.493 944.121 620.824 940.567L621.19 940.008C623.515 942.005 625.811 942.948 628.827 941.755C630.079 940.274 629.599 941.125 629.957 938.934C629.131 935.52 624.833 933.655 622.472 930.892C627.39 932.999 634.562 942.306 638.67 937.096C639.602 930.945 631.598 930.189 630.496 928.272L631.635 927.764C636.399 928.156 639.622 933.648 640.685 937.859C644.493 936.473 649.424 934.714 649.499 930.121C647.493 926.06 640.934 924.707 636.498 923.687C624.33 920.889 609.525 911.149 600.126 903.139C563.401 871.84 566.169 818.053 560.36 774.42C558.052 757.077 552.46 740.247 552.384 722.669C552.343 713.208 554.621 703.489 555.494 694.102C556.063 687.979 556.022 680.226 555.932 674.006C555.798 664.757 556.817 651.175 555.081 642.3C553.14 635.116 552.547 625.942 550.384 619.036C542.036 592.379 539.239 564.65 532.056 537.73C529.8 529.275 527.932 522.006 523.517 514.318C522.757 512.994 521.838 511.293 521.722 509.791C524.756 511.969 531.759 530.778 533.026 535.219C536.796 548.428 538.998 563.012 542.27 576.401C547.284 596.92 552.878 616.304 556.469 637.18L556.68 636.628C573.487 592.205 586.239 537.746 584.223 489.873C583.95 483.387 582.155 472.639 580.87 466.174C580.211 462.861 578.375 449.726 577.088 447.374C573.266 442.191 579.44 433.306 578.539 427.96C575.155 407.882 572.041 394.576 574.655 373.93C576.379 360.31 575.5 346.692 578.626 332.445C573.319 332.763 560.675 333.13 556.218 329.819C562.37 330.877 569.033 333.051 575.205 330.441C588.297 324.903 591.193 305.176 592.273 292.796C592.479 290.435 592.333 281.411 592.85 280.159C594.902 290.648 593.386 312.004 587.541 321.244C583.07 328.31 579.229 331.884 578.17 340.83C577.05 350.296 576.712 358.703 580.909 367.582C581.789 369.442 584.953 376.16 585.369 377.741C587.658 386.428 589.261 394.105 592.316 402.667C601.372 428.044 618.216 447.547 634.838 468.15C644.142 479.683 640.934 485.118 644.429 497.818C645.913 503.212 652.785 511.094 654.353 517.029C655.498 521.361 654.856 523.352 654.206 527.83C651.519 529.966 648.713 531.722 647.676 535.007L648.153 535.53C652.009 535.089 656.73 530.488 659.087 527.518C660.469 522.751 658.128 520.499 656.797 515.845C655.684 511.952 655.146 508.587 654.604 504.612C648.907 498.274 644.845 494.87 645.629 485.593C645.791 483.674 645.693 482.3 646.653 480.536C646.755 484.311 646.061 486.913 647.059 490.651C648.359 495.518 652.9 498.227 654.978 502.311C656.876 506.042 657.631 526.693 666.26 521.044C668.442 516.373 665.321 507.72 664.97 502.541C664.744 499.212 664.876 495.044 665.375 491.743C665.461 491.403 666.128 502.803 666.187 503.203C666.572 503.323 666.96 503.45 667.347 503.558C665.192 506.628 670.151 515.828 667.829 521.905C665.043 524.422 663.489 522.194 660.751 523.887C660.16 525.498 660.106 526.137 659.855 527.793C657.46 533.674 649.414 535.044 649.738 541.852C650.903 543.243 650.179 542.822 652.01 543.115C652.769 542.574 653.126 542.152 653.696 541.414C656.658 542.111 653.78 541.577 655.983 543.483C664.821 543.063 662.301 539.287 664.298 537.187L664.784 537.312L665.899 539.991L666.753 540.244C671.826 538.103 678.862 527.318 681.729 522.604C681.536 515.867 681.379 509.128 681.257 502.389C659.522 474.316 653.228 452.222 643.908 418.625C641.75 410.848 639.12 401.077 636.583 393.48C634.073 385.962 627.869 376.659 624.647 368.903C619.902 357.483 617.182 345.876 613.952 333.968C612.227 327.607 609.96 320.279 608.661 313.947C606.138 301.64 610.075 288.873 607.944 276.173C605.526 261.761 601.023 243.811 586.747 236.751C580.609 233.715 573.478 231.718 567.678 228.733C557.71 223.602 548.514 217.371 539.653 210.629C539.494 212.943 538.896 216.098 538.522 218.454C538.288 210.6 539.388 203.81 539.613 195.931C536.337 195.567 533.026 195.135 529.871 194.162C518.432 190.635 494.58 178.91 495.192 164.841C496.559 165.959 498.184 172.991 500.209 175.249C503.693 179.135 507.643 181.529 512.332 183.983C523.098 189.618 534.849 196.399 547.448 193.249C549.764 192.67 551.864 189.596 552.734 187.425C557.27 176.106 560.717 162.333 562.411 150.266C562.905 146.745 562.356 140.636 562.72 136.655C562.62 133.011 563.956 127.59 563.426 124.085C560.991 107.993 556.984 90.5386 540.679 83.3109C528.368 77.8533 516.869 76.5121 504.156 81.0943C493.474 84.9439 484.966 92.3907 480.166 102.614C476.652 109.988 475.301 120.38 477.076 128.57C477.412 130.123 479.151 129.168 479.879 131.201C473.051 140.094 477.763 150.34 485.034 157.202C486.773 157.522 490.175 157.945 491.508 158.826C489.959 159.622 487.921 159.538 486.119 159.628C487.312 168.516 487.979 173.377 486.985 182.281C484.551 204.071 466.472 209.324 449.494 218.085C442.483 221.703 435.652 226.279 428.816 230.302C423.348 233.424 417.132 235.547 412.17 239.491C404.63 245.484 400.539 253.554 397.313 262.45C394.466 270.3 393.69 277.495 392.687 285.756C388.958 288.901 388.481 294.121 386.836 298.439C379.146 317.752 378.939 337.742 375.81 357.664C371.676 383.992 366.956 408.489 369.962 435.348C372.566 458.61 377.969 481.442 378.798 504.981C379.013 511.083 381.342 516.605 380.239 522.986C379.968 521.156 379.986 521.243 379.149 519.587C378.824 515.055 377.75 510.31 377.327 505.769C376.744 499.495 376.67 492.963 375.747 486.743C373.928 474.47 371.684 462.092 369.632 449.855C363.707 414.518 371.33 381.695 375.71 346.832C377.008 336.5 376.903 327.077 378.807 316.609C381.504 304.424 386.998 292.999 390.645 281.113C392.54 274.941 393.061 268.072 394.851 261.828C397.523 252.51 402.291 244.211 409.683 237.86C415.482 232.877 422.565 230.606 429.2 227.104C434.402 224.359 439.066 220.128 444.25 217.286C456.459 210.616 472.713 205.919 481.167 194.143C488.174 184.382 486.538 171.115 484.698 159.98Z"/>
  <path fill="#EDEDF0" d="M408.997 396.015L410.294 397.022C409.668 406.929 411.083 416.796 410.466 426.621C409.262 445.791 397.638 499.082 410.699 513.092C411.038 513.455 411.41 513.786 411.77 514.128C413.127 515.419 414.68 516.788 415.82 518.272C417.549 520.522 422.947 530.911 423.853 533.556C425.093 537.175 424.99 541.841 425.606 545.653C426.805 553.075 428.876 560.588 429.511 568.064C428.074 571.115 424.005 571.319 421.699 569.562C414.94 564.411 415.795 553.754 412.799 546.152C410.067 556.144 410.098 561.624 412.829 571.736C414.535 578.053 425.685 593.535 414.391 594.807C412.325 596.52 412.809 596.627 410.512 597.063C408.281 596.557 393.345 581.417 389.866 579.199C388.681 578.444 384.365 572.023 381.783 569.847C373.478 545.899 378.47 541.671 379.149 519.587C379.986 521.243 379.968 521.156 380.239 522.986C379.103 529.685 378.367 539.624 378.123 546.642C377.927 552.289 380.877 564.029 383.188 569.393C383.463 570.03 385.445 572.009 386.057 572.607C385.283 568.475 381.642 554.276 381.57 552.149C385.531 556.28 384.986 572.775 390.401 578.151C392.594 580.329 394.2 581.524 396.616 583.405L396.392 583.018L396.027 582.37C392.027 575.398 391.872 568.657 389.78 561.033C388.587 556.686 384.852 553.826 387.435 549.549C387.645 555.443 393.811 566.916 394.029 573.722C394.196 578.932 407.05 595.554 411.44 595.951C412.528 595.154 412.441 595.202 412.859 593.906C408.898 587.832 403.564 580.533 401.23 573.79C399.608 569.102 399.336 561.614 397.144 557.357C395.309 553.792 395.153 553.989 395.662 549.793C397.685 551.542 402.159 574.553 404.623 578.243C406.921 581.685 412.79 595.098 417.383 592.73C420.012 588.053 413.226 578.267 411.818 573.588C410.764 569.548 408.767 560.893 409.562 556.846C410.6 551.568 411.17 544.608 412.108 539.484C413.143 540.171 417.096 558.845 418.313 561.829C419.764 565.387 423.645 572.428 428.103 567.712C428.185 566.399 426.091 555.338 425.636 553.433C424.282 547.776 423.641 539.613 422.315 534.465C422.053 533.448 416.37 522.679 415.557 521.427C412.15 516.178 405.04 510.719 404.612 503.592C403.982 490.072 403.339 475.4 405.087 461.94C407.358 444.457 410.753 427.832 409.387 410.085C409.035 405.513 409.417 400.685 408.997 396.015Z"/>
  <path fill="#EDEDF0" d="M620.824 940.567C619.176 939.141 613.045 934.631 612.551 933.633C614.997 933.644 620.031 937.979 621.19 940.008L620.824 940.567Z"/>
  <path fill="#EDEDF0" d="M610.661 944.057C609.326 941.589 608.445 940.964 606.786 938.769L607.485 938.755C610.136 940.294 610.585 940.963 611.387 943.93L610.661 944.057Z"/>
  <path fill="#EDEDF0" d="M454.598 312.458C455.921 313.012 456.454 313.225 457.35 314.314C468.958 328.427 487.865 333.91 505.576 331.083C510.227 330.34 515.612 328.477 520.122 328.206C496.43 336.763 469.052 336.055 454.598 312.458Z"/>
  <path fill="#EDEDF0" d="M556.963 505.61L557.435 505.4C557.785 507.82 555.782 516.253 554.899 518.856C550.663 531.352 547.356 534.189 534.171 535.29L533.77 534.666C537.644 534.019 541.345 532.585 544.643 530.452C553.817 524.406 554.876 515.441 556.963 505.61Z"/>
  <path fill="#EDEDF0" d="M673.382 508.015L673.658 508.225C672.132 511.817 670.782 514.274 672.991 517.823C674.623 520.445 673.968 520.429 672.173 522.175L671.747 522.841L671.014 522.463C670.861 518.814 670.048 510.192 673.382 508.015Z"/>
</svg>
